<svg width="20" height="20" viewBox="0 0 20 20" fill="none" xmlns="http://www.w3.org/2000/svg">
<path fill-rule="evenodd" clip-rule="evenodd" d="M9.99996 15.4545C13.0124 15.4545 15.4545 13.0124 15.4545 9.99996C15.4545 6.98749 13.0124 4.54541 9.99996 4.54541C6.98749 4.54541 4.54541 6.98749 4.54541 9.99996C4.54541 13.0124 6.98749 15.4545 9.99996 15.4545ZM9.99996 13.6363C12.0082 13.6363 13.6363 12.0082 13.6363 9.99996C13.6363 7.99165 12.0082 6.36359 9.99996 6.36359C7.99165 6.36359 6.36359 7.99165 6.36359 9.99996C6.36359 12.0082 7.99165 13.6363 9.99996 13.6363Z" fill="#242424"/>
<path d="M15.4545 3.63623C14.9524 3.63623 14.5454 4.04325 14.5454 4.54532C14.5454 5.04739 14.9524 5.45441 15.4545 5.45441C15.9566 5.45441 16.3636 5.04739 16.3636 4.54532C16.3636 4.04325 15.9566 3.63623 15.4545 3.63623Z" fill="#242424"/>
<path fill-rule="evenodd" clip-rule="evenodd" d="M0.594509 2.97824C0 4.14503 0 5.67245 0 8.72727V11.2727C0 14.3275 0 15.855 0.594509 17.0217C1.11745 18.0481 1.95189 18.8825 2.97824 19.4055C4.14503 20 5.67245 20 8.72727 20H11.2727C14.3275 20 15.855 20 17.0217 19.4055C18.0481 18.8825 18.8825 18.0481 19.4055 17.0217C20 15.855 20 14.3275 20 11.2727V8.72727C20 5.67245 20 4.14503 19.4055 2.97824C18.8825 1.95189 18.0481 1.11745 17.0217 0.594509C15.855 0 14.3275 0 11.2727 0H8.72727C5.67245 0 4.14503 0 2.97824 0.594509C1.95189 1.11745 1.11745 1.95189 0.594509 2.97824ZM11.2727 1.81818H8.72727C7.16986 1.81818 6.11114 1.8196 5.2928 1.88645C4.49567 1.95158 4.08804 2.06963 3.80367 2.21452C3.11945 2.56315 2.56315 3.11945 2.21452 3.80367C2.06963 4.08804 1.95158 4.49567 1.88645 5.2928C1.8196 6.11114 1.81818 7.16986 1.81818 8.72727V11.2727C1.81818 12.8302 1.8196 13.8888 1.88645 14.7072C1.95158 15.5044 2.06963 15.912 2.21452 16.1964C2.56315 16.8805 3.11945 17.4368 3.80367 17.7855C4.08804 17.9304 4.49567 18.0485 5.2928 18.1135C6.11114 18.1804 7.16986 18.1818 8.72727 18.1818H11.2727C12.8302 18.1818 13.8888 18.1804 14.7072 18.1135C15.5044 18.0485 15.912 17.9304 16.1964 17.7855C16.8805 17.4368 17.4368 16.8805 17.7855 16.1964C17.9304 15.912 18.0485 15.5044 18.1135 14.7072C18.1804 13.8888 18.1818 12.8302 18.1818 11.2727V8.72727C18.1818 7.16986 18.1804 6.11114 18.1135 5.2928C18.0485 4.49567 17.9304 4.08804 17.7855 3.80367C17.4368 3.11945 16.8805 2.56315 16.1964 2.21452C15.912 2.06963 15.5044 1.95158 14.7072 1.88645C13.8888 1.8196 12.8302 1.81818 11.2727 1.81818Z" fill="#242424"/>
</svg>
