<svg width="20" height="20" viewBox="0 0 20 20" fill="none" xmlns="http://www.w3.org/2000/svg">
<g clip-path="url(#clip0_393_12346)">
<path d="M4.65597 6.43555H0.64094C0.462746 6.43555 0.318359 6.58 0.318359 6.75813V19.6567C0.318359 19.8349 0.462746 19.9793 0.64094 19.9793H4.65597C4.83417 19.9793 4.97855 19.8349 4.97855 19.6567V6.75813C4.97855 6.58 4.83417 6.43555 4.65597 6.43555Z" fill="#242424"/>
<path d="M2.64942 0.0234375C1.18852 0.0234375 0 1.21066 0 2.66995C0 4.12989 1.18852 5.31757 2.64942 5.31757C4.10916 5.31757 5.29671 4.12982 5.29671 2.66995C5.29677 1.21066 4.10916 0.0234375 2.64942 0.0234375Z" fill="#242424"/>
<path d="M14.8675 6.11523C13.255 6.11523 12.0629 6.80846 11.3399 7.59614V6.7584C11.3399 6.58027 11.1955 6.43582 11.0173 6.43582H7.17219C6.994 6.43582 6.84961 6.58027 6.84961 6.7584V19.657C6.84961 19.8352 6.994 19.9796 7.17219 19.9796H11.1784C11.3566 19.9796 11.501 19.8352 11.501 19.657V13.2752C11.501 11.1247 12.0852 10.2868 13.5843 10.2868C15.2169 10.2868 15.3466 11.6299 15.3466 13.3858V19.657C15.3466 19.8352 15.491 19.9796 15.6692 19.9796H19.677C19.8552 19.9796 19.9995 19.8352 19.9995 19.657V12.5819C19.9995 9.3842 19.3898 6.11523 14.8675 6.11523Z" fill="#242424"/>
</g>
<defs>
<clipPath id="clip0_393_12346">
<rect width="20" height="20" fill="white"/>
</clipPath>
</defs>
</svg>
