<?xml version="1.0" encoding="UTF-8"?>
<svg id="Layer_2" data-name="Layer 2" xmlns="http://www.w3.org/2000/svg" viewBox="0 0 1483.14 759.11">
  <defs>
    <style>
      .cls-1 {
        fill: #242424;
      }
    </style>
  </defs>
  <g id="Layer_1-2" data-name="Layer 1">
    <g>
      <g>
        <path class="cls-1" d="M588.46,7c-.46,1.57-10.04-2.74-18.61,1.06-2.09.93-6.43,2.85-8.43,6.29-.26.45-.8,1.47-1.91,2.49-1.72,1.6-3.63,1.76-4.63,2.41-2.15,1.39-5.77,4.4-7.25,6.44-2.12,2.94-2.65,6.93-6.1,9.17-.4,1.06,1.58.11,1.17,1.16-.1.26-.83.77-1.11,1.24-1.52,2.62-3.68,7.89-3.62,10.89.04,1.97,1.23,3.7,1.2,5.67-.24.27-1.71-.74-1.96-1.07-1-1.3-.78-3.37-1.94-4.4-.39,5.4,3.34,10.26,1.96,15.65,4.8-1.69.85,2.88.48,4.98-.29,1.72,1.16,6.35-1.16,5.28-2.63-1.21-1.25-5.32-.89-7.53-3.15,3.94-1.76,8.23,1.76,11.35.52.46,1.37.57,1.67.87,1.55,1.57-1.62,10.83,1.48,14.75,1.29,1.62,3.67,1.53,4.3,3.92.58,2.19-.48,6.06-.2,8.81.84,8.22,8.16,6.04,10.64.08,1.81-4.36-.11-11.22,5.4-13.18.24.25-1.43,3.08-1.13,4.05.18.59,1.24.64,1.47,1.29.3.89-.08,2.36.09,3.43.42,2.63,2.62,5.78,4.28,7.85.21.26,4.18,3.92,2.15,3.33-1.76-.51-3.62-3.04-4.71-3.51-.48-.21-.74.1-.58.58l7.82,8.8c-1.81.37-2.68-1.39-4.3-1.56-.26.24,2.23,3.07,2.35,3.71.35,1.82-3.74-1.57-3.92-1.36l1.56,3.52-5.48-2.73,5.09,7.03c-2.5.53-8.97-7.95-9.58-7.82-1.82.39,1.57,3.65,1.74,4.12.29.79-1.05.34-.77,1.15.45.51,5.16,4.91,4.69,5.28-1.93.6-6.43-4.65-6.85-4.68-.58-.05-.48,2.92-.4,3.11.24.59,1.73,1.47,2.17,2.15.64.96.68,2.41,1.94,3.33-2.35,1.08-3.79-1.05-5.86-1.56-.81,2.38-2.62,4.98-4.3,6.86-2.51,2.82-8.07,7.04-11.73,7.83-8.03,1.74-17.76,1.2-26.04,2.14-1.61.18-3.26.54-4.85.82.56,4.29.61,8.67,1.25,12.95,2.43,16.4,8.99,30.62,15.61,45.43,3.35,7.5,3.75,16.6,3.06,24.71-.14,1.67-1.21,5.06-1.14,6.29.02.42.21.71.52.98,8.28,5.05,15.02,12.16,22.57,18.13,11.54,9.13,23.97,17.32,35.94,25.89,15.67,11.22,29.02,22.68,47.86,28.83,15.7,5.13,41.13,7.11,55.45-2.3,3.13-2.05,11.54-9.91,12.47-13.36,1.99-7.39-3.37-17.9-9.81-21.7-5.66-3.34-6.06-1.2-11.22.28-4.3,1.23-9.86,2.1-14.31,1.77-2.28-.17-2.27-1.05,0-1.21,2.12-.15,4.02-.12,6.17-.48,3.42-.57,11.56-2.95,12.34-6.83,1.37-6.78-3.13-19.78-6.35-25.94-.73-1.4-4-6.34-5.46-6.25-1.01.06-5.15,1.78-6.88,2.16-7.66,1.68-13.84,1.99-21.35-.58-.57-.19-1.96-.57-2.14-1.18,1.55-.27,3.01.44,4.5.42,8.02-.1,24.73-1.23,29.94-8.05,3.7-4.84,5.59-18.47,5.89-24.63.12-2.54-1.04-16.94-.04-17.65.34-.24.96-.27,1.35-.13,1.02.35,1.74,7.71,1.82,9.14.52,9.23-.68,18.35-2.36,27.39,3.79,6.23,9.96,10.52,15.7,14.84,19.39,14.61,43.97,25.42,67.26,32.13,9.9,2.85,17,2.67,26.49-1.69,17.35-7.98,36.05-22.45,52.2-33.1,4.97-3.27,10.24-6.1,15.2-9.46,18.39-12.46,35.5-27.45,56-36.35,9.46-4.11,16.64-6.47,25.4-12.56,7.12-4.95,15.97-19.53,20.31-27.43.56-1.02,3.28-5.8,1.4-6.35-.43-.13-6.85,1.87-7.36,2.35-3.49,6.93-7.63,13.5-11.5,20.19-2,3.44-3.05,7.71-6.53,10.3-.03-3.13,2.56-5.91,3.92-8.6,1.64-3.23,3.02-6.59,4.68-9.8,2.14-4.13,6.54-9.99,7.47-14.44,1.01-4.83-3.68-6.36-7.07-2.37-2.55,3-2.15,5.12-3.31,8.43-2.13,6.04-10.29,20.03-14.17,25.35-.5.69-1.08,1.25-1.69,1.83-.59-1.83.75-3.88,1.56-5.48,3.7-7.32,12.24-17.19,12.72-25.23.58-9.58-7.47,1.25-9.16,3.76-6.38,9.47-10.4,20.8-16.74,30.21-.95,1.4-1.41,2.48-3.44,2.23,1.21-9.21,9.19-16.29,10.56-25.43-1.91-.33-3.34,1.03-4.7,2.15-4.38,3.6-6.57,9.2-10.06,13.45-2.56-.04-5.11,1.13-7.78,1.57-1.96.33-4.51.17-6.51.54-6.73,1.22-10.38,5.97-16.07,8.97-13.51,7.11-31.88,12.12-46.75,15.86-15.35,3.86-41.99,7.57-51.9,21.27-1.16,1.61-2.23,2.95-3.37,4.46-.55.73-2.64,4.87-2.93,4.89-.63.04-.52-1.09-.42-1.58.45-2.3,2.94-4.93,2.39-7.03-1.76-6.7-16.99-20.93-22.94-24.8-12.52-8.13-31.11-13.09-40.66-24.69-1.74-2.11-3.12-4.8-4.78-6.96-12.82-16.71-30.42-23.39-51.38-21.78-5.97.46-12.78,2.62-18.8,3.12-7.27.61-15.79-.07-22.3-3.51-.36.03-2.44,5.93-3.91,5.85-1.05-.06-.15-3.16-.96-3.74-.3-.22-3.78.4-4.72-.17-1.43-1.16,3.35-.65,3.52-.78-.46-1.21-2.1-.63-3.23-.88-1.58-.35-3.29-.89-4.8-1.46-1.41-.52-3.37-1.35-4.49-2.35,2.37.21,4.92,1.34,7.24,1.56,2.95.28,5.77-.77,8.41.39v-1.17c-4.22-.13-8.21-1.25-12.13-2.74-.09-.71.84-.34,1.26-.28,2.58.35,4.27,1.26,6.96-.11-.04-.51-.55-.65-.95-.81-3.68-1.47-9.35-.5-13.13-2.72.22-.9,3.56.11,3.51-.97-.03-.74-3.74-1.33-3.91-2.54,2.08.07,4.47,1.06,6.46,1.17.67.04.96-.42.58-.78-.22-.21-4.52-1.76-5.6-2.43-.39-.25-2.85-1.68-2.23-2.27,1.94.86,3.85-.15,5.57.07,2.79.37,5.89,3.03,8.91,2.86-7.25-3.94-14.87-7.42-21.88-11.77-2.7-1.68-6.24-3.78-6.68-7.2l18.52,11.02c7.66,4.05,18.04,7.19,26.73,7.71,4.65.28,8.97-1.99,8.76-7.17-.1-2.37-1.83-4.33-1.55-7.02.28-2.66,3.21-4.53,3.13-7.07-.02-.48-.64-2.86-1.06-2.97-2.22-.55-7.56,2.69-9.1.57-1.91-2.63,1.37-1.83,2.44-1.87,1.29-.06,3.68-.06,4.74-.26,1.35-.25,2.05-1.78,4.12-.77-.14-5.76,4.29-4.92,3.05.89-.18.84-1.02,1.57-1.07,2.45-.05.81.45,1.6.36,2.67-.22,2.58-2.94,4.54-3.14,6.7-.2,2.21,1.31,4.97,1.22,7.43-.17,4.4-2.66,7.98-6.98,9.09-4.54,1.17-8.16-1.06-12.61-1.06l1.14,2.14c-.36,2.24-1.82,5.78-1.91,7.88-.07,1.62,2.52,2.01,3.82,2.38,16.13,4.59,32.03-3.61,48.43-2.64,15.12.89,31.49,9.53,40.87,21.35,4.02,5.07,6.02,9.87,11.39,14.04,11.06,8.59,26.8,12.68,38.11,21.37,7.47,5.73,15.9,14.06,19.78,22.68.55.12.64-.08.98-.38,1.47-1.29,2.96-3.59,4.7-5.08,14.96-12.89,41.59-15.12,60.45-20.55,10.68-3.07,23.92-7.28,33.66-12.52,4.4-2.36,8.51-6.35,13.21-7.92,4.81-1.61,10.39-1.17,15.28-2.38,2.25,3.47,3.5-1.39,4.61-3.17,2.17-3.48,7.7-11.7,12.1-11.81.89-.02,2.39.61,2.94.26.45-.29,2.05-3.69,2.57-4.49,2.59-4.03,7.84-12.03,13.27-10.97,1.32.26,1.58,1.91,2.94,1.94,2.55-8.09,13.42-7.17,12.53,1.96.52.59,12.86-6.87,7.72,5.57-2.11,5.1-13.39,22.91-17.3,26.52-2.08,1.92-8.47,6.35-11.01,7.39-13.11,5.37-26.9,10.52-39.03,18.1-3.11,1.95-5.75,4.78-8.74,6.91-7.26,5.16-14.85,9.86-22,15.17-1.65,1.22-3.53,2.4-4.74,4.06,6.37-3.04,12.26-7,18.64-10.11,15.01-7.33,30.58-13.09,47.68-11.79,11.62.89,11.87,5.06,18.21,12.7,13.84,16.68,39.85,43.15,66.58,102.05,0,0,20.26,44.64,32.86,54.69,2.29,1.82,7.51,4.97,16.23,12.03,2.91,2.36,3.49,2.95,4.97,3.34,6.13,1.61,12.16-4.43,20.08-6.37,1.82-.45,3.62-.8,6.01-.92,2.07-.1,3.06.18,7.12-.42,5.08-.75,11.35-3.03,16.21-3.37,4.06-.28,6.39,2.6,6.79,6.41.21,1.95-.53,8.75-.96,10.78-.73,3.48-4.01,4.33-4.33,5.04-.38.85.46,2.06-1.21,4.3-.91,1.21-2.99,2.18-3.11,2.36-.38.56-.07,1.71-.27,2.47-.87,3.39-3.84,2.92-5.8,4.76-1.12,1.05-1.08,1.75-2.16,3.71,0,0-1.78,3.24-5.07,5.78-4.12,3.19-8.15,1.23-17.15,2.59-2.69.41-4.71.94-8.75,2.01-4.52,1.19-10.54,3.04-17.51,5.94,19.43-.31,38.86-.61,58.29-.92,1.11.4,2.82.87,4.89.78,2.34-.1,3.79-.84,4.46-.13.77.82-.41,2.82-.42,3.38-.21,11.38,1.44,25.23.27,36.34-.09.88-.34,1.4-.7,1.71-.34.29-.71.36-1.08.43-.75.13-1.8.29-3.11.39-504.5.62-730.13.08-749.95.03-.72,0-1.42,0-1.42,0-1.03.02-1.81.08-2.23.12-3.8.32-4.56.61-5.01.09-.3-.34-.21-.73-.11-2.1.11-1.39.02-2.79.14-4.18.34-3.82-.57-103.77-.02-109.17.34-3.33,1.57-2.22,3.5-3.54,4.12-2.81,7.52-7.77,12.54-9.58.45-.66-4.01-4.06-4.68-4.89-5.73-7.15-.18-10.71,3.6-16.33,6.19-9.21,8.24-13.81,19.57-17.6,8.42-2.82,17.7-4.52,26.52-5.38-.53-.85-1.31-1.39-1.78-2.32-2.42-4.7-.71-25.49.33-31.4,1.54-8.74,6.43-19.06,12.03-25.92,4.64-5.69,10.69-9.44,15.65-14.87,1.68-1.84,7.88-10.45,9.58-10.76,1.14-.21,1.2.17.88,1.27-.65,2.23-6.87,10.34-8.71,12.42-4.39,5-10.07,8.81-14.28,13.89-11.28,13.62-14.29,33.16-12.94,50.47.36,4.67.9,4.72,4.7,6.65,18.59,9.42,34.24,10.93,54.88,7.11,7.47-1.38,14.65-5.47,22.22-4.19.11-1.72-1.59-4.2,1.1-3.43,2.26,3.71,4.42,7.52,6.41,11.39,2.76,5.36,6.34,12.14,8.61,17.6,4.32,10.42,6.09,27.76,15.38,34.7.31.23.68.79.99.19-1.66-6.64-1.55-13.49-2.86-20.22-.92-4.7-2.75-9.3-3.4-14,2.57,2.64,3.59,7.7,4.5,11.34,1.3,5.15,1.71,9.9,2.59,15.01.66,3.81,1.75,14.44,7.66,12.46,3.27-1.1,1.36-3.18,1-5.47-.91-5.73-.99-11.42-1.72-17.06-.77-5.89-2.61-11.92-3.08-17.85,2.01,2,2.72,6.08,3.4,8.92,2.32,9.69,1.9,20.64,5.1,29.72.62,1.75,2.41,7.08,5.19,5.37.78-.48,1.1-2.64,2.35-2.54-.07,8.52-8.68,5.43-9.39-1.18-1.4.08-1.33,1.52-2.73,2.15-2.13.97-4.51.32-6.04-1.4-.73-.82-1.83-3.84-2.16-4.11-.55-.45-1.42.53-2.2.62-3.06.34-5.62-3.53-7.41-5.47-.31-.06-.23.34-.19.58,2.85,20.01,6.85,39.65,8.6,59.87.57,6.62-.09,17.57,1.94,23.49,2.81,8.18,22.32,11.73,30.08,13.36,31.87,6.66,75.22,10.74,107.44,6.72,5.65-.71,19.52-3.14,23.53-6.99,3.35-3.21,3.2-12.37,4.23-16.9,4.82-21.36,30.66-12.8,46.06-12.05l-9.75-4.92c-7.89-4.6-11.32-9.06-14.42-17.66-.7-1.94-1.28-4.31-1.26-6.36,1.17-.2.62.31.82.92,3.76,11.21,14.04,19.98,25.01,23.92,7.68,2.76,18.7,2.65,25.81-1.56-5.24-3.97-11.46-11.42-13.59-17.7-.71-2.1-.16-2.81,1.46-1.07,2.59,2.78,12.72,13.23,17.12,16.92,2.09,1.75,8.62,7.22,16.76,6.52,5.98-.51,12.62-4.31,12.57-8.02-.03-2.07-2.13-3.66-6.27-6.14-13.41-8.05-17.41-7.1-21.25-10.63-9.19-8.45-4.24-30.38,3.04-43.6,4.82-8.73,11.05-14.39,15.21-17.6-5.2-6.03-8.48-11.71-10.5-15.8-3.06-6.19-8.01-15.82-7.12-28.48.5-7.19,2.45-12.86,3.91-16.34-5.02,7.34-10.04,14.68-15.06,22.02-.1.05-.2.05-.28.04,0,0-.45-.1-.62-1.39-.22-1.63,11-18.31,15.32-24.68-1.58.58-3.84,1.5-6.43,2.89-1.78.96-4.15,2.39-7.07,4.66-13.84,10.78-24.75,23.61-24.75,23.61-4.12,4.85-9.74,13.67-17.6,24.26-12.94,17.43-19.51,39.84-22.15,61.19-1.11,9.01.1,20.54-7.04,27.19.31-4.82,1.68-9.56,2.29-14.33,2.84-22.17,3.31-34.91,12.5-55.96,6.83-15.64,14.94-23.38,24.26-36.78,2.18-3.14,7.68-10.03,6.54-13.83-1.61-5.39-15.88-8.75-20.95-8.98,1.11,7.85-.42,12.97-6.06,18.4-19.95,19.19-28.9,49.7-53.46,64.31-4.1,2.44-8.89,4.89-13.66,2.96-.63-.81,6.54-3.26,7.18-3.57,11.69-5.64,20.44-14.92,27.96-25.25,6.49-8.91,12.84-17.88,19.48-26.69,7.81-10.35,23.23-24.62,10.1-37.55-3.25-3.2-10.75-7.1-15.23-5.14l2.51,7.68c.18,1.51.28,7.53-.22,8.67-.22.52-.92.57-1.22,1.14-15.6,29.45-57.85,23.38-83.32,11.54-13.22-6.15-24.4-15.68-36.16-24.1-12-8.59-24.58-16.92-36.15-26.06-5.64-4.46-10.85-9.56-16.46-14.06-1.35-1.09-3.26-2.64-4.68-3.54-.34-.21-.54-.68-1-.2-1.91,4.16-4.03,8.23-8.03,10.77v1.18c2.96,3.78,6.18,7.49,8.98,11.38,14.58,20.26,28.77,40.98,44.3,60.56,8.17,10.3,20.13,25.79,30.56,33.22,6.97,4.97,21.64,12.98,29.84,14.76,1.38.3,7.14.37,7.08,1.92-.03.95-1.3.81-.35,2.69,2.94,5.79,13.73,13.71,19.39,17,2.07,1.2,13.49,6.44,14.02,7.5,1,2.03-.67,2.58-2.35,2.74-16.02,1.57-38.41-2.01-52.36-10.25-13.69-8.08-26.17-26.27-34-39.95-6.87-12.03-12.17-25.1-21.65-35.47-.49.23-.04,1.09.08,1.48,3.34,10.48,7.72,29.79,6.78,40.58-.04.47-.46,4.15-1.58,3.31-1.97-10.48-2.3-21.27-4.42-31.77-3.75-18.54-16.01-34.58-27.51-49.18-5.71-7.25-19.39-9.95-28.25-12.44-10.74-3.02-21.45-5.37-32.49-7.43-4.17-.78-8.72-1.17-12.83-2.04-.62-.13-1.3.05-1.73-.62,9.89-.03,19.51,2.56,29.22,4.04,1.79.27,5.38,1.07,6.95.83,2.96-.46,10.84-9.49,14.82-11.4.72-.34,4.9-1.87,3.61.08-.13.19-2.82,1.71-3.54,2.33-1.85,1.58-7.92,7.76-9.19,9.59-.23.33-.55.39-.38.98,9.94,1.62,19.48,4.93,28.96,8.22l-4.77-8.33-10.51-14.92c-2.06-1.34-4.41-.95-6.84-1.76-5-1.67-7.97-6.62-11.52-10-8.08-7.69-19.51-17.2-29.88-21.38-5.22-2.11-9.96-2.07-12.09-8.65-2.21-6.85,4.51-15.58,11.82-14.76-6.63-5.97.56-16.14,7.03-18.99,1.23-.54,3.97-1.16,2.95.99-.6,1.26-5.13,4.28-6.46,6.07-1.21,1.63-2.3,4.2-2.37,6.25-.07,2.13.79,3.68.59,5.71,7.84,2.66,16.02,6.96,23.03,11.4,7.51,4.76,13.22,10.94,15.14,19.87l-7.66-10.92c-4.36-5.23-21.52-15.3-28.14-17.25-5.05-1.49-7.77-.7-10.97,3.52-2.3,3.03-2.73,5.91-.51,9.14,2.15,3.14,6.17,3.27,9.47,4.62,12.66,5.2,23.48,14.96,33.13,24.38,3.43,3.35,5.87,7.33,11.53,7.28,4.93-.05,6.63-1.73,8.56-5.95.7-1.53.38-2.38,1.3-4.48.25-.56.5-1.06.82-1.94,0,0,.5-1.34.76-2.82,1.22-7.14.73-18.34-2.17-25-6.37-14.63-13.06-28.3-15.28-44.58-.76-5.58.73-12.73-2.33-17.24-1.6-2.36-3.22-1.08-5.43-.19-5.26,2.13-16.38,9.97-19.24,14.8-3.24,5.46-1.91,12.39,1.72,17.32,1.44,1.96,6.25,4.48,8.39,6.48,5.33,4.95,12.77,14.41,17.14,20.42,1.99,2.73,4.43,5.77,5.16,9.12-.95-.07-1.77-1.45-2.33-2.16-6.41-8.14-12.26-16.85-19.38-24.44-7.19-7.68-17.24-8.45-16.19-21.27.52-6.3,4.57-10.81,9.16-14.71,3.89-3.3,15.17-11.18,20.17-10.02,2.14.5,2.52,2.49,3.19,2.88.56.33,7.02-.61,8.34-.69,6.73-.43,20.5.02,26.22-2.34,3.16-1.3,7.82-7.61,9.74-10.61,3.32-5.2,4.45-13.85,5.32-19.91-2.91,1.23-6,1.99-8.8,0-4.97-3.54-2.95-11.42-3-16.57-6.64-4.31-4.32-11.12-3.5-17.61-.27-.77-1.5-.64-2.19-.95-4.52-2.07-5.49-5.06-4.72-9.96.52-3.34,3.01-4.75,2.54-8.6-.89-7.35-3.31-9.39-1.35-17.98,1.52-6.65,4.79-7.18,8.48-11.47,1.37-1.59,1.85-3.67,2.97-5.25,2.3-3.24,8.45-7.78,12.29-8.85.53-.15,1.87-.13,1.95-.2.47-.45.24-1.32.21-1.54-.47-3.4,21.11-14.98,28.99-9.01.27.21,1.08.83.94,1.3ZM536.04,46.79l1.38-5.08,3.32-5.87c-2.94,2-4.68,5.29-5.08,8.81-.05.43-.31,2.16.38,2.15ZM942.9,219.45c-3.23-3.5-10.62-7.94-15.36-8.7-19.88-3.17-62.97,14.47-87.55,34.85-5.3,4.39-11.87,10.6-22.98,16.95-.89.51-7.04,4.01-15.1,8.83-8.96,5.36-10.8,6.68-12.69,9-4.54,5.55-5.28,11.8-5.86,16.54-.34,2.82-1.47,13.09,3.57,23.88.42.65,1.07,1.68,1.83,2.97,4.14,7.03,4.36,10.5,7.57,15.1.97,1.4,2.59,3.43,5.14,5.55,10.48-1.1,21.44-1.98,32.85-2.57,7.16-.37,14.14-.6,20.94-.72,8.17-9.8,14.29-17.11,17.49-20.92,13.71-16.36,27.46-32.64,29.12-38.18.31-1.04,1.31-3.39,3.2-5.41.74-.79,2.16-1.3,2.38-1.63.56-.86.08-4.03.95-4.04.78,0,1.86,13.9,3.05,15.33,5.14,17.3,14.63,30.96,27.47,43.35,20.34,19.62,44.55,22.49,61.06,49.28,3.17,5.14,5.19,9.7,6.38,12.69,5.82,1.13,13.95,2.43,23.74,3.15,14.23,1.03,31.09.75,31.32-1.37.03-.26-.19-.59-5.4-3.2-4.02-2.01-6.2-2.68-8.47-4.05-23.95-14.41-32.86-48.53-44.31-72.68-7.07-14.9-16.84-32.65-26.24-46.15-9.26-13.31-18.67-26.71-28.42-39.66-1.75-2.32-3.9-6.26-5.69-8.21ZM822.5,253.35c-.66-.14-1.03.34-1.53.62-5.33,3.03-10.36,7.29-15.72,10.49-5.18,3.09-11.2,6.45-16.53,9.29-8.54,4.55-11.36,4.4-20.94,2.41-22.79-4.74-54.86-20.5-73.2-34.79-5.06-3.95-10.64-8.21-14.33-13.46-.53-.13-.67.3-.89.67-1.68,2.8-2.22,5.5-5.53,7.4,1.2,2.3,3.1,3.74,4.42,6.07,1.81,3.21,3.93,8.61,5.05,12.17,1.83,5.83,2.78,11.8,1.85,17.9,3.99,0,7.54,2.48,10.18,5.27.49.52,2.03,2.93,2.21,2.97,1.05.22,1.81-.8,2.77-1.1,5.55-1.72,14.64,3.13,18.3,7.33,1.73,1.98,2.44,4.18,3.97,6.2,1.37-.03,3.31.04,5.59.47,1.06.2,3.15.67,6.87,2.29,2.43,1.06,5.72,2.68,9.45,5.12,1.19-.51,2.96-1.32,5.06-2.41,7.74-4.03,11.7-7.79,15.98-11,6.45-4.84,4.92-1.92,20.46-10.98,4.36-2.54,8.96-5.38,17.83-10.42,1.9-1.08,2.17-1.22,3.07-1.75,7.08-4.12,12.26-8.03,15.61-10.76ZM908.2,279.17s-.08-.07-.12-.08c-.78-.24-2.75,4.19-3.08,4.9-3.06,6.65-17.91,24.02-20.85,27.47-5.85,6.88-14.16,17.02-24.48,30.87,21.8,4.6,38.77,10.41,50.18,14.83,26.15,10.14,41.97,20.33,73.73,28.59,8.05,2.09,14.73,3.44,19.03,4.24-1.26-2.24-3.3-5.64-6.16-9.5-13.02-17.56-24.6-20.59-42.75-33.55-14.52-10.38-30.12-27.03-37.75-43.25-3.52-7.48-6.93-16.31-7.76-24.52ZM521.96,358.59c-2.54-7.59-4.18-15.66-7.24-23.07-1.27-3.06-3.17-6.08-4.56-9.13-2.13-4.67-3.97-9.49-6.23-14.11l-.94-.64c-2.4.47-4.93.17-7.33.5-3.73.51-8.75,2.75-12.82,3.62-15.09,3.21-34.91,3.98-49.06-2.6-3.77-1.75-7.42-4.71-10.93-6.29-2.08-.94-1.14.22-1.53.76-.77,1.07-10.48,1.75-12.54,2.17-7.47,1.51-18.57,4.68-24.18,9.86-3.89,3.59-6.12,8.51-9.06,12.85-2.15,3.17-6.43,5.7-3.45,9.84s9.83,8.04,15.05,8.43c14.77,1.1,31.34-2.6,46.21-1.99,10.06.42,19.84,2.59,30.06,1.53,16.58-1.72,36.73-8.56,51.87,1.84,2.64,1.82,4.48,4.15,6.68,6.42ZM1096.83,408.66c2.49.25,4.57.16,6.07,0,2.35-.24,4.51-.49,6.83-1.78,1.99-1.11,4.34-3.12,3.93-4.02-.08-.19-.29-.34-.64-.43-.83-.21-6.13,1.17-7.76,1.16-1.62-.02-4.23-.65-5.69-1.38,1.99-1.32,4.66-.42,6.86-.57,1.71-.12,6.01-.37,7.31-.9,1.67-.68,4.04-6.04,2.45-6.15-1.61-.11-4.32,1.52-6.31,2.29-.66.26-2.92,1.08-5.53.54-.92-.19-.96-.36-.96-.4-.02-.38,1.86-.85,8.21-2.34,2.82-.66,3.78-.95,4.69-1.91.67-.71,1.04-1.84,1.22-3.91.16-1.88-.02-3.7-1.18-4.61-.86-.68-1.95-.63-2.44-.59-6.06.38-10.29,2.02-10.29,2.02-4.49,1.74-6.08.96-12.46,1.94-11.01,1.68-14.74,5.28-24.59,8.23-8.27,2.48-14.54,2.61-24.58,2.82-50.09,1.05-97.11-20.35-97.11-20.35-7.49-3.41-20.59-9.74-39.82-16.91-5.81-2.17-12.39-4.36-20.32-6.62-14.79-4.2-26.27-5.97-28.37-6.3-11.19-1.73-29.38-3.46-53.08-1-3.81,2.47-10.06,7.25-15.07,15.33-3.41,5.5-5.1,10.69-5.99,14.45-2.46,7.03-2.68,12.87-2.52,16.49.17,3.89.35,7.23,2.56,10.48,1.37,2.01,3.7,3.41,8.28,6.14,3.98,2.37,4.19,2.16,11.71,6.29,4.01,2.21,7.11,3.98,7.11,3.98,3.81,2.18,4.12,2.48,5.52,3.15,1.56.75,5.09,2.41,9.2,3.43,3.16.78,7.03.77,14.65.72,6.46-.05,9.81-.15,14.6-.72,13.47-1.6,14.26-4.92,28.27-6.68,6.08-.76,12.15-1.77,19.95-.53,6.8,1.08,5.28,2.24,16.32,4.88,8.91,2.14,17.91,3.31,22.47,3.89,1.79.23,3.25.41,4.57.54,11.73,1.18,20.42-.86,31.27-2.49,16.35-2.46,24.53-3.69,30.18-1.86,3.21,1.04,13.85,5.02,18.97,7.64,1.02.52,4.58,2.39,9.76,3.37.29.05.57.1.59.11,0,0,1.79.3,3.61.42,9.34.6,26.42-6.25,26.42-6.25,5.96-2.39,14.74-4.92,26.71-5.2.7.01,4.89-.03,7.87-3.29,1.36-1.49,1.93-3.21,2.21-4.46-.8.25-1.8.48-2.97.55-2.69.16-4.84-.61-6.03-1.16,1.2.09,2.86.14,4.82-.08,1.35-.15,3.13-.36,5.26-1.2,1.72-.68,3.68-1.49,4.78-3.45.33-.59.76-1.5.5-2.23-.91-2.53-9.96-1.38-12.04-1.09ZM633.04,380.17c-11.4-1.28-23.39-7.66-33.02-13.75-10-6.33-16.56-14.55-24.05-23.48,3.1,6.5,6.71,12.87,10.64,18.9,9.63,14.8,21.88,31.1,39.08,37.22,10.13,3.61,22.13,5.45,32.85,5.3.15-.69-.2-.78-.65-1.11-1.13-.85-3.72-1.73-5.19-2.63-8.2-5.03-15.29-11.78-19.66-20.45ZM361.9,364.26v109.18c0,.05-.02.31.17.52.25.28.61.23.64.23,92.48.13,184.95.26,277.43.39-17.73-1.69-31.97-2.27-41.29-3.33-16.85-1.92-38.64-4.61-54.41-10.55-15.15-5.71-13.12-13.81-14.27-27.98-.74-9.13-1.22-18.21-2.4-27.33-1.8-13.89-4.03-28.69-7.57-42.12-14.01-23.46-45.31-8.18-66.93-8.99-5.59-.21-11.24-1.32-16.81-1.58-16.67-.79-34.03,2.81-50.52,1.6-3.61-.27-6.23-1.64-9.4-3.15-4.35,3-7.54,7.4-11.52,10.77-.94.8-2.97,1.42-3.13,2.34ZM1020.51,436c-10.07-6.36-18.7-7.74-23.49-8.07-10.92-.76-19.8,1.75-19.8,1.75-2.17.61-6.42,1.99-11.88,2.62-3.31.38-6.93.52-6.93.52-.96.04-2.84.1-5.14.06-4.41-.07-7.99-.46-10.77-.78-31.2-3.7-37.11-9.67-53.6-9.57-20.99.13-22.82,9.89-46.18,10.29-13.81.24-25.09-2.96-32.3-5.6-.59.97-1.53,2.29-2.92,3.63-3.27,3.16-6.88,4.29-8.53,4.7-1.15.28-3.54.27-8.31.24-7.65-.05-8.85-.42-10-1.09-2.06-1.21-2.33-2.44-4.34-2.88-2.23-.49-4.08.54-5.57,1.21-2.48,1.11-6.23,2.21-11.66,2.04-.86-.03,19.75.57,19.75.57,19.5-.29,83.36-.32,241.66.36ZM1117.96,474.48c.4-.37.39-.87.39-.96,0-10.99,0-21.99,0-32.98.05-.35.06-.82-.23-1.11-.23-.23-.68-.21-1.51-.28-118.41-.65-237.07.93-355.35.06-4.78-.04-10.81-1.73-15.71-2.32-8.89-1.09-27.09-4.15-34.7.01-9.68,5.3-5.08,18.9-10.27,26.51-6.12,8.98-35.88,10.41-46.15,10.59l-5.68.78h468.61c.12-.02.37-.09.6-.3Z"/>
        <path class="cls-1" d="M652.58,345.17c8.17,2.21,15.48,2.83,21.21,2.86.06.52-.89.69-1.3.84-2.25.85-4.35.8-6.74.73-50.89-1.47-73.36-25.95-73.36-25.95-5-3.68-8.68-6.91-16.06-13.37-12.7-11.13-17.03-17.94-21.91-22.3-.99-.89-6.24-6.04-5.08-7.24.79-.17,1.04.17,1.58.57,1.71,1.26,3.59,3.5,5.28,4.9,15.07,12.49,32.34,26.21,49.62,35.29,5.49,2.89,11.47,5.09,16.64,8.41,5.99,4.76,16.1,11.48,30.11,15.28Z"/>
        <path class="cls-1" d="M617.44,224.01c-1.24,6.36-5.66,14.64-10.41,19.13-8.24,7.78-33.03,10.42-43.51,7.58-7.72-2.09-21.52-11.37-26.9-17.32-1.44-1.59-11.54-16-11.54-17.03,0-1.38,1.23-1.44,2.16-.59,3.43,3.14,6.81,9.83,9.81,13.66,4.54,5.79,14.52,12.99,21.31,15.86,13.87,5.87,40.76,3.05,50.85-9,3.33-3.98,5.03-8.45,8.22-12.31Z"/>
        <path class="cls-1" d="M635.45,33.09c8.27,1.97,7.92,9.1,2.15,14.09-.76.66-2.52.98-2.54,2.14-.01,1.06,2.16,5.2,2.34,7.45.18,2.39-.67,4.39-.79,6.63-.44,8.34,6.07,17.2,7.67,24.84.91,4.36-1.04,9.29-5.89,9.8-2.09.22-10.35.33-11.72-.81-.43-.36-2.14-2.57-1.78-3.1,2.37-1.01,2.84.11,4.29,1.56.55-2.63,6.77-2.64,8.74-1.88,1.2.46.5,2.64,3.02.52,1.73-1.46,1.73-2.9,1.53-5.07l-8.99-23.7c-.66.13-1.1.54-1.55-.21.29-2.58,2.58-4.84,2.71-7.47.13-2.61-1.47-5.71-1.54-8.36-3.53.81-7.55,1.67-9.78-1.95,4.2.68,7.42,1.47,11.5-.44,4.6-2.16,7.63-9.24,1.53-11.61-1.14-.44-3.24-.3-3.58-1.53-.32-1.16,1.1-2.95,1.53-4.2.58-1.73.69-3.4.4-4.94-.89-4.8-5.94-7.44-6.81-7.86-3.6-1.74-7.02-1.35-8.48-1.1-.15-2.21-.74-3.7-1.27-4.66-.33-.61-.74-1.2-.58-1.36.21-.21,1.3.33,2.01,1.2.77.95.57,1.64,1.01,2.27.95,1.37,3.67.27,5.57.69,8.71,1.94,13.69,10.88,9.31,19.06Z"/>
        <path class="cls-1" d="M609.24,46.77c.58.82,6.69-.49,7.82-.96,2.23-.94,5.86-5.03,7.23-5.29.9-.17.71.64.4,1.18-1.31,2.29-5.26,5.7-7.92,6.17-.95.17-5.57.93-6.17.9-1.04-.05-1.85-.91-2.73-.83-.67.07-2.46,1.83-3.62,2.28-1.04.4-4.58.71-4.76,1.48-.07.28.37,1.17.19,2.13-.81,4.55-5.94,5.35-8.85,8.01-3.12,2.85-3.05,6.74-7.81,9.02-3.66,1.75-9.67.63-13.49-.63-.64-.21-.99-.39-1.39-.95,3.37-1,6.78-.69,10.05-2.46,1.28-.69,4.84-4.39,5.4-4.4,3.12-.03-1.64,5.62-2.54,6.27,4.21-.8,4.79-5.62,7.03-8.03,2.02-2.18,8.83-4.6,9-7.43.06-1.02-.64-2.14-.37-3.49.18-.91,1.05-1.22,1.14-1.63.12-.51-2.19-2.16-.54-2.47.87-.16,1.69.57,3.66-.26,1.57-.66,4.1-3.91,4.92-3.67,1.84.54-.93,4.37-1.75,4.89.98.55,3.69-2.21,4.02-3.05.43-1.09-.39-2.29-.11-3.4,1.88-.52,3.09,1.39,4.28,1.78,3.82,1.25,6.67-2.95,7.27-2.86,2.68.43-1.56,5.3-4.33,5.75s-6.12-1.71-6.03,1.97Z"/>
        <path class="cls-1" d="M654.62,438c1.51-1.08,3.36-2.51,5.37-4.32,0,0,3.56-3.23,6.57-7.02,5.18-6.52,8.67-15.56,10.66-21.03,2.56-7.03,5.53-16.06,8.31-26.84-.41,3.68-1.14,9.06-2.44,15.49-2.65,13.03-4.77,20.03-8.83,27.55-3.84,7.12-11.16,15.34-19.63,16.17Z"/>
        <path class="cls-1" d="M767.32,330.42c-2.24,2.38-5.47,3.58-8.18,5.31-15.33,9.75-22.61,18.68-25.07,21.49-5.7,6.51-7.23,9.93-8.03,12.31-1.06,3.12-1.59,6.54-2.08,6.48-.49-.05-.54-3.54-.46-5.31.38-8.86,5.53-15.89,7.83-18.96,9.68-12.9,22.82-17.58,27.13-19.04,3.66-1.25,6.78-1.91,8.87-2.28Z"/>
        <path class="cls-1" d="M588.09,168.06c-3.84-.56-6.75-3.06-10.09-4.58-9.7-4.42-20.74-6.68-31.39-6.77-.47-1.9.95-1.86,2.53-1.97,10.22-.69,31.4,3.72,38.17,11.95.36.44.95.63.78,1.37Z"/>
        <path class="cls-1" d="M573.22,94.91c-1.97,3.19-6.27,1.27-8.61-.59-6.37-5.05-13.26-18.59-8.15-26.15,2.31-3.41,4.34-2.84,7.49-.96,1.13.67,2.4,1.63,3.22,2.65.66.82,2.11,3.55.18,2.56-.83-.42-2.48-2.52-3.78-3.27-3.54-2.01-5.03-1.7-6.19,2.28-1.32,4.5.19,9.32,2.34,13.31,2.72,5.06,7.12,10.61,13.51,10.17Z"/>
        <path class="cls-1" d="M562.27,368.37c.55-.6.71.05.78.58.67,4.95-4.82,9.69-8.13,4.62-1.48-14.16-2.77-28.33-5.17-42.36,1.17.75,1.48,2.87,1.84,4.22,3.21,11.98,3.16,24.7,5.38,36.87.79,2.54,3.23,1.15,4.2-.52.42-.72.98-3.27,1.1-3.4Z"/>
        <path class="cls-1" d="M624.56,68.63c.18.28,2.15.46,1.89,1.43-.14.51-1.28.44-1.6.85-.71.92-.7,4.08-2.51,4.44-3.43.68-3.22-2.16-1.76-4.3-1.21-.42-7.31,1.06-7.43-.59l10.17-1.76c.36-3.05-5.73-.69-6.65-1.96-1.02-1.4,5.35-2.21,7.02-.95,1.11.84.53,2.3.87,2.84Z"/>
        <path class="cls-1" d="M614.61,60.19c1.82-.25,4.22-.2,6.05,0,1.17.13,7.57,1.32,7.33,2.78-.32,1.92-5.1.31-6.44.25-2.1-.1-5-.19-7.05-.02-1.43.12-5,1.35-5.85,1.19-.1-.02-.77-.57-.4-.78,1.55-1.93,3.91-3.09,6.37-3.42Z"/>
        <path class="cls-1" d="M545.44,105.86c3.31,1.72,5.37.49,5.86-3.13-1.99,1.92-4.64,1.89-4.7-1.37.33-.46.86.64,1.18.79,1.94.9,2.56-3.2,2.74-4.51,3.36,1.29,3.63,3.33,2.96,6.67-.96,4.73-6.76,7.24-8.04,1.54Z"/>
        <path class="cls-1" d="M548.57,37.79c-2.55-.32-1.52-4.14-.96-5.86.76-2.33,6.31-10.82,9.2-8.82,1.59,1.1-2.04,2.82-2.75,3.54-2.66,2.69-4.73,7.45-5.49,11.14Z"/>
        <path class="cls-1" d="M543.09,39.75c-.68,2.08-2.18,3.95-1.95,6.26,1.43-.81,1.51-2.98,3.66-2.3,1.82.58-.94,1.74-1.23,2.97-.57,2.45,1.71,4.91-2.04,3.24-.16.89.27,1.64.47,2.46.13.51.75.74-.28.67-2.94-3.07-3.8-12.13,1.36-13.29Z"/>
        <path class="cls-1" d="M570.09,87.47c-2.42.05-4.11-2.7-3.94-4.88.1-1.26,1.17-2.31.81-3.72-1.64.31-1.08,2.23-3.24,1.09-1.58-.83-1.24-4.62.89-3.44.59-.73-2.51-3.99-.97-3.9.52.03,3.55,3.95,3.87,4.73,1.53,3.62-.66,4.88-.47,5.95s3.25,4.01,3.05,4.17Z"/>
        <path class="cls-1" d="M544.65,84.74c-.93.94-1.59-1.81-2.16-.79-.42.76-.29,3.39.1,4.22.85,1.82,2.66.28,4.01.68-4.61,5.16-8.53-1.57-6.17-6.17.99-1.94,1.5-.66,2.53-.42.38.09.94-.33,1.31-.09.62.41.34,1.87.38,2.58Z"/>
        <path class="cls-1" d="M628.79,161.81c-1.94,2.08-5.25,2.65-7.82,3.72-1.13.47-5.85,3.32-6.66,2.54-.99-.96,3.58-3.36,4.31-3.71,3.14-1.5,6.67-2.4,10.17-2.54Z"/>
        <path class="cls-1" d="M629.18,31.92c2.11-2.73-.43-7.74-2.99-9.33-.81-.5-4.5-1.17-2.89-2.22.78-.51,3.24.19,4.07.65,3,1.67,6.94,10.03,1.81,10.9Z"/>
        <path class="cls-1" d="M589.66,66.35c-.55,6.92-8.89,12.16-14.87,8.02,1.39-.11,2.68.3,4.1.19,2.96-.23,6.02-1.95,7.84-4.29.39-.5,2.26-4.63,2.92-3.92Z"/>
        <path class="cls-1" d="M564.22,236.92h7.24c.83,0,.6,1.32.03,1.99-1.81,2.12-7.19,1.09-7.27-1.99Z"/>
        <path class="cls-1" d="M596.71,42.88c1.86.16,4.46-.46,5.43-2.2.31-.56.85-3.9,1.8-1.71,1.78,4.12-5.46,8.36-7.23,3.91Z"/>
        <path class="cls-1" d="M620.18,24.09c3.27-4.21,8.48,4.19,6.86,6.67-1.05,1.61-1.94-2.56-2.28-3.22-.96-1.91-2.35-3.3-4.58-3.44Z"/>
        <path class="cls-1" d="M592.21,50.31c1.2-.28.97,1.67.81,2.37-.95,4.03-8.13,5.35-8.04,3.69.03-.53,5.11-2.09,6.27-3.9.36-.57.44-2.04.97-2.16Z"/>
        <path class="cls-1" d="M557.57,26.45c.39,2.1-.55,1.27-1.38,1.93-.91.74-1.41,1.9-1.75,3-.21.68.18,2.74-.98,2.5-2.65-.55.85-8.9,4.1-7.43Z"/>
        <path class="cls-1" d="M579.09,86.7l-1.57.78c-.35.35,1.17,2.61-.15,2.31-.71-.16-2.16-.76-2.56-1.39s-.59-4.27.9-4.02c.62.1,2.04,2.58,3.38,2.32Z"/>
        <path class="cls-1" d="M582.62,54.61l3.47-2.98c.79-.99-.14-4.01,1.64-2.71,2.15,1.58-2.07,7.92-5.11,5.69Z"/>
        <path class="cls-1" d="M630.75,46.4c-.64-.6,4.43-3.96,3.85-6.37-.14-.6-.98-.84-1.12-1.44,5.15.27.97,8.07-2.74,7.82Z"/>
        <path class="cls-1" d="M577.53,81.22s-.49.76-.23,1.17c.49.79,3.1.84,2.97,2.35-1.35.08-5.51-.77-6.08-1.96-.14-.29.17-1.87.24-1.93.12-.11,3,.27,3.11.37Z"/>
        <path class="cls-1" d="M578.71,79.25l6.15-3.44,1.29.52c.6,2.26-5.92,4.05-7.43,2.92Z"/>
        <path class="cls-1" d="M611.58,35.84c1.35.07,1.89,1.83,3.12,2.19.87.25,3.48-.75,3.14.74-.48,2.12-7.74.99-6.26-2.93Z"/>
        <path class="cls-1" d="M663.62,292.47c.13.13.01,1.23-.19,1.57-.63,1.06-5.16,2.12-6.07,1.17-.65-.69.24-.66.55-.81.74-.38,5.36-2.26,5.7-1.92Z"/>
        <path class="cls-1" d="M562.66,83.17c-.74.8-2.62-3.57-2.71-4.13-.29-1.83-.28-4.46,1.35-5.65-.16,1.94-.53,3.64-.16,5.63.17.89,1.67,3.98,1.52,4.14Z"/>
        <path class="cls-1" d="M580.65,62.05c.35,1.68-1.66,3.2-3,3.85-.42.2-3.7,1.45-3.65.26.02-.52,2.29-1.1,2.86-1.44,1.35-.8,2.35-2.01,3.78-2.67Z"/>
        <path class="cls-1" d="M539.57,73.39c-2-.11-1.19-3.87-.68-5.18s2.01-2.95,1.57-.39c-.32,1.82-1.21,3.63-.89,5.57Z"/>
        <path class="cls-1" d="M545.44,68.7l-2.14,4.69c-1.42-1.62-.27-5.23,2.14-4.69Z"/>
        <path class="cls-1" d="M552.49,84.35c1.41,1.39,1.88,2.27,3.9,2.93-2.21,2.49-4.47-.27-3.9-2.93Z"/>
        <path class="cls-1" d="M628.4,44.44c.45-.94,1.72-1.51,1.9-2.63.21-1.36-1.53-1.97-.92-3.24,2.8,1.16,2.37,6.22-.98,5.86Z"/>
        <path class="cls-1" d="M577.92,97.64c-1.14.46-4.01-2.76-2.14-3.13.95-.19,2.39,2.88,2.14,3.13Z"/>
        <path class="cls-1" d="M576.75,91.77c-.78.35-4.1-1.41-3.13-2.34.83-.8,3.02,1.35,3.13,2.34Z"/>
        <path class="cls-1" d="M882.28,366.43c-3.53.51-7.12.68-10.64,1.3-1.76.31-7.53,2.24-8.36,2.2-1.8-.08-1.99-2.61.21-3.7,4.23-2.08,13.06-2.16,17.47-.64.51.18,1.19.11,1.32.83Z"/>
        <path class="cls-1" d="M1121.76,475c.01.39.03.94.04,1.61.02,1.37-.01,1.49-.04,1.57-.43,1.11-3.34.98-4.48.89H440.61c-21.97-.38-44.13-.05-66.12-.54-2.59-.06-10.49-.17-12.42-.44-2.49-.35-2.61-1.68-.13-2.02,1.73-.24,6.55-.34,8.65-.4,25.16-.72,51.08-.14,76.29-.69h674.89Z"/>
        <path class="cls-1" d="M958.18,137.73c-.9-.9-3.21,3.86-5.08,2.73-.48-1.53,1.24-1.04,1.17-2.34-6.05-.63-1.6-2.02,1.56-2.35l-2.34-1.36c0-.39,3.34-1.69,3.98-1.89,2.17-.68,2.57.64,2.27-2.61-5.5,3.29-12.51,2.76-17.22-1.56,4.88.03,8.63,1.98,13.52.41,4.38-1.41,7.74-4.65,9.17-9.02-.69-.14-.97.35-1.37.77-1.95,2.02-3.66,5.2-6.84,5.48l4.69-4.5-1.17-.39,1.95-2.35-4.11,2.15-.58-.19,1.56-1.76-1.95.19c1.64-1.83,4.13-3.07,5.87-4.69.33-.31,1.98-1.76,1.56-2.15-2.28.84-3.47,1.67-6.05,1.56-2.93-.13-8.11-1.3-10.38-3.12,4.01-.51,11.16,1.78,14.5-.57.29-.21,2.48-2.4,2.55-2.57.54-1.33-.95-.29.97-2.12,1.59-1.52,3.59-3.84,3.32-6.08-1.47,1.43-3.06,3.41-5.28,3.52.67-1.51,4.18-3.7,4.69-4.89.62-1.45-2.35.67-2.73.8s-1.34.44-1.57,0c2.7-3.47,8.51-6.42,8.41-11.15-2.11,2.83-4.39,5.77-8.02,6.65-.69-.66,4.23-4.38,4.69-4.89.61-.67,1.47-1.93,1.97-2.72.36-.57.63-1.92.87-2.1.63-.46,1.52.74.8-1.57-.12-.4.03-1.15-.7-.85-.59.25-1.89,2.58-2.59,3.28-2.25,2.25-8.75,5.61-11.9,5.36-2.73-.22-.23-1.5.97-2.19,2.49-1.43,5.59-2.16,7.84-3.9,2.8-2.14,4.67-5.93,5.06-9.43.08-.73-.42-.85-.75-.55-.42.37-1.35,3.28-2.74,3.52.75-2.76,3.36-5.52,3.5-8.47.04-.82-.66-6.39-1.35-6.39-2.5,4.97-5.31,11.38-11.15,12.9-.81-.84,4.39-5.93,5.08-6.85,4.98-6.66,6.36-14.34,1.73-21.66-.92-1.46-2.08-3.25-4.06-3.17,1.52,6.7-1.33,16.5-6.86,20.72-1.07.82-3.35,2.65-3.9.79-2.61,2.27-2.98,4.85-2.74,8.21,2.62-1.76,3.13-5.84,6.85-5.47.62,1.4-.95,2.67-1.07,3.38-.12.76.54,1.54.11,2.9-.99,3.14-8.65,4.81-8.46,7.19,0,.12,1.9,1.38,2.1,1.35.4-.06,6.3-3.62,6.89-4.09,1.13-.93,1.93-3,3.17-2.31l-.78,2.93c.66.61,4.95-3.25,4.14-.36-.36,1.29-2.38,1.58-3.38,2.5-.62.56-.87,1.4-1.56,1.96-1.34,1.08-3.7.78-3.11,2.95.23.27,3.05-1.77,3.52-.18.86,2.94-9.03,4.21-11.07,3.62-.73-.21-1.39-1.51-2.41-1.47-.52.12-1.22,2.35-.97,2.69.43.59,5.49,1.62,6.43,2.39.49.73-1.65.35-1.97.39-.54.07-1.13.21-.58.78.79.82,6.52,1.74,7.82,2.94-2.12,1.24-5.59,1.85-8.03,1.78-2.57-.07-4.52-1.13-6.84-1.97,1.85,2.59,5.25,3.81,8.22,4.7-1.36,1.76-4.56.26-6.37-.09l-4.98-3.04c-1.51,1.67,6.38,4.37,7.35,4.58,2.14.47,4.03.34,6.1.55.44.04,2.15.18,2.2.73-5.41,1.25-10.64,1.43-15.53-1.48-.81-.48-1.86-1.86-2.35-1.98-.64-.16-2.81,1.09-4.22,1.15-1.57.07-2.97-.81-3.14-.8-.66.04-.84,4.51-1.08,5.56-3.22,13.88-26.3,31.84-38.04,39.44-8.33,5.39-18.22,10.54-27.98,12.72-1.14.25-5.59.49-5.88,1.16,14.65,9.09,32.36,12.18,49.31,8.8-.7,2.22-4.03,3.89-6.17,4.2-10.69,1.54-25.57-.69-35.19-5.7-3.61-1.88-7.9-5.98-10.98-7.41-3.78-1.77-7.12-.72-11.06-4.59-16.5-16.19,14.74-42.04,26.88-50.59,15.14-10.66,41.91-27.94,57.26-9.66.69.82.85,2.06,1.6,2.71,6.19,5.35,12.74-5.84,14.91-10.46,10.78-22.85,4.76-40.26-13.57-56.22-3.85-3.35-7.96-5.1-12.08-7.88-.76-.51-1.4-1.5-2.07-1.84-1.35-.69-2.78-.05-3.66-1.42.01-1.33,10.47-1.1,11.95-1,5.09.36,19.37,4.5,23.23,7.68.63.52,2.06,2.44,2.23,2.48.43.1,2.56-1.3,5.14-.46,2.31.76,6.71,5.52,8.01,7.64.49.8,2.03,4.64,2.26,4.79.52.34,1.64.11,2.39.35,3.59,1.16,6.61,8.29,6.97,11.81.2,1.96-.26,4.43.07,6.19.17.9,1.51,2.67,1.95,3.91,1.03,2.92,1.43,6.71,1.15,9.79-.13,1.43-1.2,4.15-1.14,5.12.04.72,1.8,2.01,2.15,3.67.87,4.15-1.45,12.18-2.95,16.26-.72,1.96-3.08,5.56-3.35,6.83-.22,1.05.66,3.59.6,5.28-.11,3.59-2.45,9.76-4.38,12.84-.75,1.21-3.61,3.97-3.76,4.46-.35,1.19.08,2.91-.09,4.22-.46,3.69-3.08,12.92-7.67,13.1-3.6.15,1.55-3.44,2.14-4.16.47-.57,2.46-3.99,2.01-4.44ZM942.53,45c-.48-.44,3.41-7.13,3.53-8.81.49-6.76-8.6-9.35-13.71-10.94-2.28-.71-14.27-3.98-15.65-2.93-.31,1.4,2.33.65,3.32.79,4.09.55,7.98,2.13,10.78,5.27.71.8,2.44,3.99,2.97,4.1,1.04.22,1.3-2.34,2.7-1.94,1.11.32.53,4.48.2,5.47,1.33-.67,1.57.14,2.74.39-.52-.98.54-3.76,1.57-2.74.22.22-.24,5.94-.39,6.26-.03.07-1.14-.36-1.56,0-.5.74,2.82,4.4,3.45,5.35,1.1,1.68,1.83,3.58,3.01,5.2.8.18.53-.33.77-.77.64-1.16,1.91-4.78,2.54-5.3.28-.23.77-.37.79.01l-2.74,6.84c1.96-1.26,2.47-3.86,3.5-5.69.3-.53.33-1.14,1.19-.96.23,3.57-3.55,5.67-4.69,8.83l2.15,8.38c.33-.6,1.34-3.32,1.36-3.73,0-.14-1.54-.49-1.43-2.27.02-.3,1.52-5.45,1.66-5.72,1.74-3.48,3.05,3.33,2.82,5.17-.19,1.53-1.63,5.46-2.74,6.45-.44.39-1.36.28-1.48.76-.19.75.16,2.01.02,2.87,1.07.24.67-.33.97-.78,1.77-2.66,4.07-6.55,3.73-9.78,2.56.32.97,4.84.4,6.47s-1.63,2.88-1.97,4.48c9.12-7.65,11.69-21.82,2.54-30.51l-.58,3.52c.38-4.24-1.69-7.59-6.27-7.04.3,3.1.56,4.84-.59,7.82-.38.97-3.6,6.65-4.88,5.48ZM853.69,152.59c11.14-.71,23.04-4.72,32.88-9.96,10.38-5.53,28.57-22.04,32.77-32.96,1.54-4,3.28-7.97.47-11.64-3.9-5.1-9.68-6.23-15.83-5.68-13,1.17-42.84,21.29-51.86,31.1-.95,1.03-2.47,2.87-.98,4.1,6.05-5.12,12.43-10.84,19.5-14.53.21-.11,3.19-1.9,2.61-.52-.46,1.08-6.47,4.43-7.63,5.68-.5.67,1.29.47.98,1.36l-12.34,11.92c-1.21,1.49-.6,2.19,1.01,1.01,3.89-2.85,8.09-8.3,11.93-11.55,1.21-1.03,3.29-3.12,4.88-2.56l-17.21,18.59c2.22-1.39,16.32-13.92,17.4-13.69.2.04.71.64.61.98l-16.06,15.84c2.37-.46,4.03-3.32,5.86-4.89s3.86-3.07,5.75-4.42,9.36-6.53,10.98-7.02c.54-.16,1.11-.11,1.66-.09.09.84-.24,1.54-.77,2.16-2.86,3.29-11.11,7.83-15.06,11.15-.58.49-5.02,4.12-4.51,4.68,2.7-2.34,18.37-13.17,20.92-12.52.27.07.68.61.6.97-.15.71-10.6,6.59-12.25,7.71-3.85,2.61-7.45,5.63-11.22,8.34-.47.93,1.74.6,2.07.5.64-.19,1.71-1.65,2.5-2.2,3.77-2.65,10.46-6.86,14.89-7.81.83-.18,1.02-.25.89.7-7.28,3.08-13.67,7.96-19.75,12.93l-5.68,2.33Z"/>
        <path class="cls-1" d="M359.82,365.8c-.22-3.21,3.74-1.29,5.1-2.14.86-.53-.42-1.69-.39-2.71.09-3.3,8.64-8.54,11.84-7.59.83.25,1.29,1.55,2.12,1.79,2.79.82,13.21.2,16.76.1,15.72-.45,31.58-3.25,47.35-2.38,3.37.19,7.16,1.22,10.55,1.22,10.58,0,21.02-2.45,31.71-2.39,4.33.02,6.18-.5,10.14-.78,4.34-.31,10.74.42,14.43,2.82.81.53,1.65,1.82,2.23,2.08,2.52,1.12,5.39-.01,7,3.96-.04,1.7,2.38,5.13,1.43,6.45-.24.34-6.72,1.36-7.84,1.55-41.34-1.28-83.64,1.64-124.87,0-5.72-.23-11.5-1.23-17.21-1.58-3.45-.21-6.98.39-10.37-.4Z"/>
        <path class="cls-1" d="M1115.93,440.91l-.2-.78c1.1-.06,4.23-.21,4.5,2.55s-.68,2.18-1.29,4.03c-3.58.22-7.16-.06-10.74.05-17.38.53-34.84-.48-52.23-.78-13.65-.24-27.07.36-40.7-1.17-.78-.09-9.31-.13-9.3-1.35,3.58-1.33,7.25-.97,10.87-1.35,23.41-2.48,47.41-1.3,70.62-1.21,6.11.02,12.21.87,18.3.01-.22-.94-1.24-.34-1.37-1.56,3.85.38,7.69,1.6,11.55,1.56Z"/>
        <path class="cls-1" d="M1098.33,460.87c-.07.68.67.37,1.03.39,2.07.11,4.16-.1,6.24-.02,3.28.13,6.8.09,10.07.39,1.15.1,4.45.33,3.35,2.7-.53,1.14-9.51.76-11.08.82-30.46,1.22-61.36.55-91.83,0-11.03-.2-22.22.19-33.2-.77-1.66-.14-3.56-.56-5.19-.97,0-.85,9.65-.93,10.52-.98,9.52-.57,19.19-1.02,28.73-1.19,20.69-.35,41.4.3,62.09.01l-3.71-.77c-2.58,0-16.63-.21-17.92-1.97-.58-.79,1.13-1.15,1.29-1.22,1.51-.6,3.49-.87,5.08-1.12.58-.09,1.29.14,1.76.02.34-.09.05-1,.18-1.16.11-.14,2.56-.1,3.08-.45h48.32c.4.14,1.91,3.02,1.94,3.36.07.9-.53,1.69-1.13,2.04-6.49.76-13.1.78-19.63.88Z"/>
        <path class="cls-1" d="M412.93,376.77c-.91-1.56,1.84-1.82,2.6-1.89,11.93-1.07,24.92-.22,37.02-.61,14.31-.46,30.1-2.8,44.23-1.93,2.96.18,5.94,1.07,8.89,1.28,3.78.27,7.63.08,11.41.32,2.52.16,6.07-.88,6.96,2.85,1,4.18-4.75,3.04-6.97,3.17-11.94.72-26.77,1.12-38.65,0-15.57-1.46-30.52-2.26-46.17-2.55-2.4-.04-18.74.33-19.32-.65Z"/>
        <path class="cls-1" d="M744.51,432.31c.75,1.15-1.76,1.51-.79,2.16s5.66,1.04,5.88,1.95c.28,1.18-2.13,1.04-2.74.98-.12.08.2.47.39.59,2.11,1.37,7.84,1.61,10.4,2.91.56.29,1.11.36.95,1.19-9.4,1.07-18.91,1.42-28.37,1.57l-5.68.77,35.8,1.18,5.29.78c.79.62-4.75,1.5-5.29,1.55-11.48,1.19-24.72.93-36.4,1.16-6.06.12-12.26.94-18.35,0-2.72-.42-2.93-4.18,0-4.65.94-.15,1.96.04,2.91-.03-1.25-1.3-2.89-1.57-3.13-3.75s.95-2.26,2.53-2.9c8.96-3.62,18.06-2.18,27.29-1.41.53.04,1.17.41,1.48-.35.29-.71-6.31-2.1-6.76-2.24-1.99-.63-5.87-2.88-7.52-4.22-.29-.23-4.01-3.92-2.75-3.51l2.54,1.56-2.34-3.52,3.91,2.34c.28-.26-2.87-3.03-2.15-3.91.67.6,5.14,4.77,5.68,4.3-2.12-2.86-4.78-5.48-5.87-8.99.77-.18.92.4,1.33.82,1.79,1.83,3.35,3.96,5.32,5.64,4.38,3.73,10.73,7.27,16.44,8.02ZM743.72,436.62c-3.81-.66-6.82-4.09-10.56-4.31-.22,1.04.26.67.77.97,1.42.84,6.04,3.26,7.33,3.64.39.12,2.41.44,2.46-.31Z"/>
        <path class="cls-1" d="M589.93,278.17c.04.63-.98.64-1.42.73-2.25.46-6.66.82-8.97.84-1.66.02-3.23-1.18-4.87-.6,5.19,3.55,11.56,5.69,17.61,7.24,0,.71-1.69.42-2.14.38-1.67-.14-8.27-2-8.32-1.86-.05.13,5.23,3.45,11.99,5.21,0,0,.9.23,7.45,3.92.19.11.67.39.8.88.03.14.04.29.01.46-20.21-8.01-26.93-12.27-28.65-14.69-.33-.46-1.67-2.53-4.26-4.05-1.39-.81-1.83-.43-4.4-1.66-1.78-.86-6.45-3.15-7.49-4.64-.57-.83-.43-1.94-.98-2.54-.47-.51-4.86-2.5-6.08-3.32-1.39-.94-4.96-3.65-5.48-5.12-.28-.8.22-1.31.13-1.7-.13-.6-3.18-1.79-3.96-2.26-3.3-1.98-7.02-4.38-9.86-6.97-1.68-1.53-1.16-1.62-2.56-2.95-3.6-3.43-5.91-3.13-6.81-5.26-.71-1.69.74-1.89,1.44-6.91.51-3.66-.12-4.53.67-8.56.25-1.26.42-1.73.39-2.7-.06-2.22-1.04-3-1.58-5.51-.38-1.75-.49-4.05.02-4.2.55-.16,1.45,2.39,4.47,6.79.21.31.65,1,1.64,2.28,1.77,2.28,6.34,6.69,5.63,9.55-.1.4-1.45.05-.41,1.65,1.32,2.01,7.29,6.8,9.45,8.55,5.18,4.17,10.79,7.83,16.39,11.39-.36.52-1.29-.04-1.72-.24-2.88-1.33-5.94-3.4-8.74-4.97-.96-.56-.89.72-1.1.73-1.07.04-5.52-3.1-6.65-3.93-.64.39.13.86.39,1.17,2.11,2.52,5.77,4.2,8.02,6.64-3.04.19-5.48-2.22-7.96-3.58-1.62-.89-3.54-1.33-4.76-2.67l.2,2.34-1.76-.78c-.26-.08-.28.37-.19.58.59,1.31,7.05,5.98,8.62,7.42,1.45,1.34,2.8,3.45,4.47,4.92,3.35,2.92,17.07,10.94,21.14,10.94h6.85c.03.58-1.39.69-1.81.74-1.56.18-3.9.43-5.43.47-.49.01-3.86-.94-3.32.15,1.45,1.03,3.2,1.89,4.82,2.62,1.53.69,7.39,3.06,8.68,3.06h10.37Z"/>
        <path class="cls-1" d="M525.58,382.03c2.33,3.67-2.05,5.58-3.72,5.92-10.62,2.13-21.99-.96-32.6-1.59-12.82-.76-26.02-.04-38.88-.37-7.9-.21-16.79,0-24.61-.81-.94-.1-2.16-.42-.98-1.98,1.64.23,3.31-.38,4.87-.49,12.38-.82,25.4-.52,37.83-.81,17.62-.42,35.27-.19,52.85-.81,1.23-.04,4.41-.38,5.25.94Z"/>
        <path class="cls-1" d="M479.76,325.9c-.5-.06-4.11-1.01-4.1-1.37,1.11-1.65,8.39-2.33,8.99-2.94,1.03-1.04-3.13-.85-3.12-1.75,1.6-2.02,4.74-1.95,6.75-3.02,4.48-2.41,3.61-2.47,9.15-3.76,3.55-.83,4.77-2.82,7.49,1.39,3.2,4.96,3.17,8.82,4.88,13.9.96,2.85,2.22,2.69,3.36,4.47.74,1.15.95,3.38,1.6,4.27s2.48,1.31,2.98,2.9-.63,3.58-1.97,4.35-1.89-.23-3.17-.39c-5.74-.72-11.67-.98-16.99-3.55-.48-.62,3.05-1.34,3.45-1.44,1.52-.36,3.43-.73,4.97-.9.69-.08,3.14.13,3.3-.03.27-.27.56-2.48-.37-2.91-1.92-.89-7.32.63-9.39-1.57-1.37-1.47.72-1.38,1.17-2.54-8.68.1-17.98,1.47-26.42-.78-.53-.48.91-.72,1.17-.79,6.71-1.99,14.94-1.62,21.87-2.78.46-.08,1.82-.12,1.81-.73-5.54-.45-11.99.6-17.41,0Z"/>
        <path class="cls-1" d="M526.75,394.05c-.28.34-.52.37-.86.47-7.9,2.14-19.68.78-27.88.43-14.43-.61-29.02-.17-43.41-1.19-2.45-.17-5.32.62-7.51-1.34,1.42-1.99,3.83-1.2,5.65-1.36,14.23-1.27,29.11-.61,43.44-.76,7.99-.08,16.18-.97,24.21-.42,1.36.09,5.02.41,6.11,1.09,1.2.75,1.22,1.95.25,3.09Z"/>
        <path class="cls-1" d="M472.21,401.13c.25-.72,1.39-1.29,1.87-1.47,1.25-.48,2.91-.73,4.22-.97,12.71-2.34,27.07-2.15,39.84-1.29,2.06.14,6.77-.39,8.48,1.06,2.41,2.04.55,4.83-1.53,5.49-2.66.84-7.04.84-9.89.96-6.91.31-13.89-.09-20.75-.45-7.36-.39-15.13-.29-22.24-3.32Z"/>
        <path class="cls-1" d="M773.49,452.65c.75.72-1.44,1.09-1.71,1.12-14.42,1.98-29.96,1.64-44.5,1.99-7.27.17-16.31,1.31-23.47.4-4.37-.56-4.67-5.81-.63-6.28,6.36-.74,13.18.31,19.52.43,11.64.22,23.2.48,34.77,1.17,5.35.32,10.71.32,16.02,1.16Z"/>
        <path class="cls-1" d="M655.67,355.63c1.19,1.27-6.04,2.92-6.57,3.01-23.19,4.19-59.82-23.22-75.03-39.39-2.33-2.48-4.38-5.29-6.64-7.84-.69-.77-5.28-4.66-4.5-5.47,1.62.43,3.39,2.16,4.7,3.32,3.37,2.99,6.21,6.63,9.43,9.74,15.56,14.99,44.76,35.05,66.68,36.62,3.97.28,8.06-.37,11.93,0Z"/>
        <path class="cls-1" d="M782.46,340.77c.66.94-3.39,3.04-4.01,3.51-12.55,9.54-14.69,11.04-19.69,16.05-2.71,2.72-8.34,8.46-11.64,17.3-3.51,9.41-2.67,17.73-3.41,17.73-.63,0-1.98-5.97-1.56-12.53,1.87-28.72,36.19-42.19,37.47-42.37,1.11-.15,1.8-.02,2.83.31Z"/>
        <path class="cls-1" d="M719.01,326.43c-5.87,14.45-18.1,26.78-21.74,42.43-2.18,9.38-2.88,18.91-4.5,28.24h0c-1.98,13.58-3.95,27.17-5.92,40.76-1.68,8.03-6.11,19.69-15.44,20.95-.92.12-4.26.26-4.79-.3-.59-.62.13-.67.54-.81,2.36-.86,4.63-1.97,7.02-2.77,6.38-2.14,13.8-28.28,14.65-39.96.1-1.4.25-2.8.32-4.21.27-5.19.79-8.32.96-10.09.73-7.46-.22-8.85.22-15.21.41-5.96,1.86-10.24,2.69-14.19,3.61-17.01,12.45-27.43,21.26-41.73,1.68-2.73,3.06-6.1,4.69-8.61.24-.38.43-1.03,1.05-.9,1.48.33-.62,5.4-1.03,6.4Z"/>
        <path class="cls-1" d="M491.77,410.91c1.77-.52,3.5-1.39,5.29-1.8,8.14-1.9,22.25-2.76,30.3-.93,1.54.35,3.51,1.44,2.58,4.59-.38,1.29-2.55,1.73-3.41,1.85-4.54.64-10.98.61-15.62.49-4.37-.11-14.39-.74-18.23-3.14-.36-.22-.83-.27-.91-1.05Z"/>
        <path class="cls-1" d="M676.28,242.31c1.27,1.53,5.68,13.57,5.96,15.75.18,1.38-.13,2.8.13,4.17.17.93,1.02,1.81,1.05,2.43.09,1.91-2.45,6.13-4.47,6.86l-.2-1.18c-.34-.28-3.05,2.03-3.13.97-.15-1.75,3.35-4.36,3.13-6.45-1.23.79-2.23,2.22-3.91,1.95,1.14-1.87,2.98-3.5,3.13-5.86l-2.93,2.74-.2-1.18c-.12-.15-3.31,2.44-3.52.97,1.35-2.77,2.87-5.46,3.63-8.49.32-1.25,1.28-3.68-.11-4.22.28.89-2.08,5.28-3.13,4.3-.33-.31,2.19-4.77,1.56-5.87-1.99,2.02-3.28,5.19-6.65,5.08,1.46-2.66,4.39-4.55,4.69-7.82-2.44,1.57-6.04,4.7-8.99,2.93,2.85-2.44,5.76-4.24,7.5-7.75.53-1.08.98-3.93,1.88-4.38,2.41-1.23,2.02,2.15,2.57,3.31.41.87,1.56,1.19,2,1.72Z"/>
        <path class="cls-1" d="M501.15,263.37c-.37.32-1.75,3.4-3.2,4.04-.88.38-1.85.02-2.73.4-.56.24-1.29,1.48-1.98,1.93-2.29,1.51-4.62,1.1-7.02.21-.07-.61,2.2-1.09,1.18-1.76-1.09-.72-3.92-1.22-5.38-2.03-.47-.26-.57-.79-.98-1.02-3.43-1.87-7.45-3.63-10.08-6.53,1.49.09,2.92.83,4.29,1.38,2.23.89,4.82,2.69,7.05,2.73-1.01-1.1-3.73-1.86-3.33-3.71,4.4,1.3,8.52,3.72,13.11,4.29-.21-.72-6.5-3.76-5.48-4.69l8.22,1.95-4.69-4.11c2.4-.15,4.62,1.98,7.04,2.15l-4.3-3.9,7.82,2.73-6.85-7.04-.39-1.17c2.47,1.87,4.67,4.33,7.05,6.25,1.41,1.13,5.75,2.96,5.22,4.82-.04.15-1.75,2.27-1.92,2.41-1,.79-2.38.44-2.66.67Z"/>
        <path class="cls-1" d="M635.71,446c-.94-.03-2.27-.19-3.76-.71-1.66-.58-2.89-1.4-3.67-2.02,1.14.23,2.91.51,5.08.53,4.27.04,6.59-.96,6.95-.23.35.73-1.43,2.76-3.55,3.43-.23.07-1.29.18-3.42.39-1.03.1-2.05.3-3.09.33-1.39.04-2.49-.09-3.14.63-.12.14-.23.26-.21.38.11.65,3.38.64,6.48.49-2.53.47-4.57.46-5.96.36-2.36-.17-3.3-.61-5.99-.84-2.81-.25-4.86-.03-5.49,0-2.71.18-17.21-.25-29.96-8.32-15.8-9.99-24.41-28.85-23.65-44.88.05-1.1.14-2,.21-2.61,1.22,4.64,3.44,11.48,7.65,19.01,4.13,7.38,14.05,26.57,35.41,32.68,9.88,2.82,20,2.6,30.13,1.37Z"/>
        <path class="cls-1" d="M542.17,392.02c4.38,16.97,8.16,33.94,19.98,47.52,2.72,3.12,5.9,5.34,8.99,8.03-5.64-3.73-22.52-15.96-27.67-37.86-1.57-6.68-1.69-12.75-1.3-17.68Z"/>
        <path class="cls-1" d="M490.52,422.13c-.57-.56.16-.68.5-.87,1.84-1.03,8.62-1.65,11.05-1.86,7.18-.63,18.8-1.45,25.73-.3,4.68.78,3.97,4.94-1.46,5.4-8.57.73-21.93.07-30.49-1.24-.74-.11-5.14-.93-5.34-1.12Z"/>
        <path class="cls-1" d="M827.08,259.79c.16.75-.39.93-.82,1.33-3.84,3.51-8.67,6.38-12.49,9.81-6.87,6.17-15.56,17.79-19.77,26.01-.99,1.93-1.73,4.87-2.62,6.38-.29.5-.41.81-1.09.67.01-1.25-.76-2.45-.75-3.67.12-8.01,15.76-26.07,22.08-31.13,2.67-2.14,10.74-7.96,13.6-9.1.63-.25,1.16-.4,1.85-.3Z"/>
        <path class="cls-1" d="M989.87,365.41c-10.26-9.72-22.31-17.49-33.05-26.61-5.8-4.92-10.92-10.55-15.4-16.69-4.64-6.36-8.48-12.89-9.46-20.86l4.77,11.07c5.9,8.8,12.97,17.45,21.05,24.34,9.38,8,22.33,15.67,29.91,25.26.75.94,1.74,2.36,2.18,3.49Z"/>
        <path class="cls-1" d="M802.81,408.06c-2.33,2.17-6.37-.21-8.42-1.95-10.73-9.09-8.89-26.62-3.78-38.22.42-.96,2.16-5.43,3.41-3.65.4.57-2.04,8.3-2.37,9.78-2.4,10.92-3.28,19.19,3.96,28.52,1.93,2.49,4.01,4.69,7.2,5.52Z"/>
        <path class="cls-1" d="M834.91,403.75c.08-.09,2.38,1.65,1.95.2-1.61-2.57-3.91-5.41-5.16-8.14-.19-.4-.73-1.86.27-1.45,1.12.46,6.39,6.93,8.02,8.41,4.66,4.25,8.6,6,15.09,6.07,3.53.04,7.92-1.19,11.35-1.21s.22,2.54-1.51,3.22c-7.08,2.77-17.72,2.08-24.4-1.57-2.27-1.24-4.67-3.03-5.6-5.54Z"/>
        <path class="cls-1" d="M791.74,415.71c8.62,1.36,16.94,5.76,16.59,8.58-.02.14-.35.77-1.01,2.03-.71,1.36-1.07,2.05-1.46,2.47-.25.27-1.29,1.39-2.59,1.51-1.38.12-2.09-.96-3.79-2.15-1.48-1.04-1.48-.6-7.35-2.91-4.93-1.94-5.09-2.32-5.06-2.45.02-.09.19-.2,1.07-.18,4.42.13,11.09,3.71,12.71,3.98.87.14,1.04.39.96-.65-.88-.62-2.21-1.48-3.95-2.27-4.97-2.25-9.54-2.25-9.52-2.59.02-.35,4.6-.15,4.65-.61.06-.6-7.38-1.62-7.32-2.28.04-.37,2.44-.51,4.06-.48,2.03.04,3.35.35,3.37.24.06-.27-7.4-1.98-7.31-2.49.06-.32,3.04-.2,5.96.26Z"/>
        <path class="cls-1" d="M497.57,431.91c-.62-.6.14-.67.55-.82,5.03-1.86,12.96-1.47,18.43-1.92,2.75-.23,11.94-2.48,13.53-.22,1.83,2.59-1.37,4.64-3.74,4.93-5.76.7-15.98-.11-21.92-.8-.89-.1-6.6-.93-6.85-1.17Z"/>
        <path class="cls-1" d="M951.52,422.92c-.37.91-1.82.9-2.66,1.06-5.05.93-13.01.03-18-1.34-4.49-1.24-24.21-11.71-27.44-14.82-.85-.82-1.43-1.72.25-1.43,1.95.33,6.22,2.27,8.2,3.16,7.52,3.41,14.33,8.43,22.23,11.03,5.63,1.86,11.48,2.7,17.42,2.34Z"/>
        <path class="cls-1" d="M936.13,108.13c.34.3.48.9.89,1.25,4.2,3.45,9,5.19,14.11,6.84.09.68-.89.37-1.36.39-1.11.04-2.22-.03-3.33,0l3.53,1.36c1.9,1.79-2.43,1.89-3.25,2.55-.51.41-.19,1.04-.29,1.14-.62.6-7.44-2.12-8.56-2.93-2.29-1.66-7.2-7.31-6.03-10.24.1-.25,1.67-1.93,1.89-2.43.65.89,1.66,1.41,2.41,2.08Z"/>
        <path class="cls-1" d="M1004.74,416.27c-.11.69-2.03.43-2.56.41-16.29-.88-31.11,2.32-47.72.76-8.17-.77-17.82-2.57-25.72-4.8-3.66-1.03-7.75-2.68-10.48-5.36,4.26,1.96,7.82,3.85,12.44,4.97,13.01,3.15,31.54,4.47,44.88,3.63,1.71-.11,3.74-.71,5.47-.79,7.88-.39,15.96-.17,23.69,1.19Z"/>
        <path class="cls-1" d="M824.34,450.69l3.76-1.12c15.93.11,33.45-1.58,49.28-.46,2.49.18,6.77,1.09,1.96,2.39-16.08-.77-32.98.94-48.96,0-1.97-.12-4.05-.81-6.05-.8Z"/>
        <path class="cls-1" d="M898.31,273.2c-3.39,11.23-9.56,21.25-16.66,30.48-3.5,4.55-11.01,14.52-17.56,13.32-1.01-.19-4.8-2.57-2.72-3.09,1.75-.44,3.08,1.64,6.39-.24,8.74-4.97,20.56-20.96,25.28-29.89,1.78-3.36,2.97-7.58,5.27-10.57Z"/>
        <path class="cls-1" d="M821.99,271.52c-7.54,5.51-13.37,13.1-18.4,20.92s-8.39,15.21-11.33,24.28c-.17.51-.01,1.22-.79,1.36.24-1.27-.43-2.5-.41-3.7.18-11.35,17.66-34.41,26.89-40.83,1.18-.82,2.58-2.01,4.04-2.02Z"/>
        <path class="cls-1" d="M889.69,199.93c.07.54-.06.99-.29,1.46-1.11,2.27-17.52,11.59-20.8,13.63-5.95,3.7-11.7,8.57-18.43,10.72,7.13-8.02,17.51-12.72,26.58-18.22,1.52-.92,12.04-8.5,12.95-7.59Z"/>
        <path class="cls-1" d="M715.43,286.81c4.04,4.49,3.83,10.32,3.61,12.41-.45,4.35-2.46,7.45-3.62,8.96.65-1.28,1.41-3.17,1.69-5.55.28-2.4.01-4.78-.3-4.8-.24-.02-.36,1.38-1.14,3.55-.55,1.53-1.18,2.72-1.63,3.49.54-1.28,1.19-3.34,1.14-5.9-.02-1.24-.21-2.33-.43-3.21-.78,1.69-1.56,3.39-2.34,5.08.26-1.62.44-3.33.06-3.44-.35-.11-.89,1.2-1.23,1.1-.56-.16.74-3.77,0-8.01-.48-2.72-1.64-4.8-1.83-4.74-.19.06.72,2.3.66,5.13-.06,2.74-1.02,4.99-1.93,6.59.45-3.53.39-8.19-2.41-11.81-1.86-2.4-4.36-3.61-4.04-4.3.38-.82,4.23.02,7.17,1.23,1.96.81,4.41,1.82,6.57,4.22Z"/>
        <path class="cls-1" d="M571.92,351.33l-3.12-3.91c0,.32.03.66.07,1,.36,3.19,2.08,5.61,3.49,7.14-1.94-1.5-4.85-4.08-7.34-7.99-2.63-4.12-3.59-7.79-5.35-14.81-.8-3.17-1.8-7.65-2.6-13.13,1.6,4.85,3.64,10.19,6.27,15.85,2.8,6.02,5.75,11.3,8.6,15.85Z"/>
        <path class="cls-1" d="M731.59,391.23c-.87-.36-1.03-2.14-1.12-2.98-.72-6.82,2.27-15.88,5.36-21.93,1.27-2.48,8.32-14.38,11.21-13.82,1.48,1.08-1.34,2.73-2.13,3.73-7.9,9.93-12.39,22.37-13.32,35Z"/>
        <path class="cls-1" d="M696.76,232c-5.7-1.36-8.9-8.91-9.38-14.28-.18-2.01-.31-9.98,1.92-10.59,3.84-1.06,1.7,4.46,1.59,6.28-.23,3.59.86,7.85,2.17,11.16,1.02,2.56,2.74,4.86,3.71,7.44Z"/>
        <path class="cls-1" d="M445.13,308.69c-.09.73-2.01.41-2.5.35-7.37-1.03-16.83-7.84-18.06-15.59-.25-1.57-.95-7.42,1.9-6.61,1.55.44.96,5.09,1.56,7.07,2.04,6.75,10.84,12.41,17.11,14.78Z"/>
        <path class="cls-1" d="M693.26,297.73c.07-1.45-.18-2.73-1.88-3.07-1.94-.38-3.01,2.86-4.21,4.25-3.91,4.54-8.69,8.23-13.51,11.73,6.9-.75,12.49-3.85,17.03-8.99.96-1.09,1.41-2.63,2.49-3.48-.04-.19-.06-.36.08-.44Z"/>
        <path class="cls-1" d="M693.26,297.73c-.14.08-.12.25-.08.44.02-.01.03-.03.05-.05.01-.13.02-.26.03-.39Z"/>
        <path class="cls-1" d="M665.84,312.99c-.48,2.61-3.55,3.33-5.79,3.79-7.84,1.64-22.26.22-29.7-2.94-.56-.24-2.14-.69-2.08-1.44.16-.65,7.59,1.48,8.53,1.64,6.4,1.11,16.95,1.4,23.38.53,1.12-.15,4.89-2.23,5.65-1.58Z"/>
        <path class="cls-1" d="M827.86,402.19c.29-.31,1.78.91,2.14,1.18,7.02,5.27,10.67,9.69,20.41,10.5l5.62.25c-2.99,2.84-8.86,1.78-12.59.86-5.91-1.45-14.14-6.49-15.57-12.79Z"/>
        <path class="cls-1" d="M614.56,145.56c.15.11.2,1.71.8,2.16.09.07,2.05.54,2.16.55.65.07,1.35-.48,1.89-.34.44.12,1.1,1.28,1.01,1.68-.09.38-1.25.88-1.71,1.43-1.37,1.65-2.3,3.89-3.75,5.64-2.48,3-6.25,5.94-10.16,6.46,1.52-2.18,7.02-5.3,7.92-7.53,1.05-2.58-.83-9.32-.49-9.68.08-.09,2.24-.46,2.34-.39Z"/>
        <path class="cls-1" d="M935.09,131.07l-1.17.2c.6,1.59,4.5,2.35,5.08,2.94.44.45.03.79-.59.79-3.62.02-7.96-4.56-9.78-7.44-.29,2.43,2.44,4.22,3.93,5.86l4.49,2.35c-6.06,1.25-12.14-5.06-11.17-10.97.17-1.01.73-3.46,2.19-2.54.62.38.81,2.43,1.37,3.33,1.21,1.95,4.28,3.6,5.66,5.49Z"/>
        <path class="cls-1" d="M496.78,236.7c-.46.46-1.16-.28-1.51-.64-2.28-2.38-5.31-8.37-7.72-11.45-3.21-4.11-6.8-7.8-10.93-10.98-1.87-1.44-4.27-2.37-5.67-4.31,7.67,3.45,14.57,8.67,19.49,15.52.95,1.32,7.1,11.09,6.33,11.86Z"/>
        <path class="cls-1" d="M764.47,308.29c4.12-8.93,4.77-11.04,4.51-11.18-.38-.2-2.93,3.9-3.55,4.9-3.52,5.67-4.73,9.22-5.06,9.1-.39-.14.42-5.27,3.25-10.36,1.27-2.29,2.74-4.18,2.53-4.34-.21-.17-1.99,1.68-2.83,2.6-6.15,6.7-8.56,14.05-8.73,13.97-.28-.11,4.39-18.82,14.24-24.54,1.03-.6,3.03-1.59,6.91-3.86,5.79-3.39,7.43-4.76,7.87-4.34.85.81-5.4,5.56-9.71,15.34-1.22,2.77-3,6.5-6.69,10.54-.32.35-2.31,2.63-2.73,2.16Z"/>
        <path class="cls-1" d="M726.11,302.23c-1.07-4.21-3.9-6.57-3.22-7.29.31-.33.91.13,4.14.88,1.97.45,2.19.39,2.62.74,1.09.88.95,2.28,1.35,4.68.21,1.22.59,2.91,1.36,4.9l-2.35-3.32c.21,1.9-.3,3.68-.79,5.48-.95-.22-.65-1.14-.79-1.75-.04-.18-.19-.63-.33-.63-.21,0-.23.93-.54,1.99-.29,1.02-.91,2.38-1.2,2.32-.48-.09.8-3.78-.27-7.99Z"/>
        <path class="cls-1" d="M906.01,190.54c1.65-.26,4-.6,6.87-.91-1.08,1.09-2.79,2.48-5.16,3.05-2.09.5-3.74.13-4.64,0-2.53-.35-6.43.26-12.21,4.82.26-.51.75-1.38,1.57-2.27,1.61-1.77,4.04-3.18,13.58-4.69Z"/>
        <path class="cls-1" d="M884.81,158.07c1.27-.26,6.1,3.97,7.66,4.86,2.27,1.3,5.42,2.64,8.04,2.92,1.04.11,7.26-.45,6.8,1.41-.53,2.13-6.97,1.18-8.61.79-4.02-.94-11.84-5.56-14.09-9-.33-.5-.42-.85.2-.98Z"/>
        <path class="cls-1" d="M772.68,399.84c-5-5.23-5.64-13.1-4.52-19.97.9-5.51,2.91-12.07,6.47-16.41-1,3.75-2.61,7.32-3.57,11.1-1.36,5.4-2.39,10.36-1.34,15.92.61,3.23,2.17,6.2,2.95,9.37Z"/>
        <path class="cls-1" d="M893.22,150.64c.9-.93,3.87,3.67,4.5,4.3,2.43,2.4,7.56,5.58,10.9,6.32,1.73.39,3.94.04,5.08.4,1.58.5.35,2.02-1.13,2.26-5.28.83-12.83-3.71-16.2-7.61-.64-.74-3.86-4.92-3.14-5.66Z"/>
        <path class="cls-1" d="M602.45,406.1c.14.38.61,1.76,0,2.34-.52.5-1.58.16-2.05,0-12.68-4.23-19.28-12.67-19.28-12.67-5.91-7.55-7.76-15.54-8.41-20.19,1.1,2.8,2.8,6.74,5.31,11.25.59,1.05,2.74,5.24,4.85,7.73,4.97,5.86,12.33,9.39,19.57,11.54Z"/>
        <path class="cls-1" d="M508.13,203.45c-.69-.16-.84-.91-1.08-1.46-1.24-2.77-2.07-7.07-3.12-10.19-2.42-7.18-5.61-15.11-6.66-22.68-.17-1.21-.1-2.41-.1-3.61l3.8,14c2.27,8.01,7.3,15.39,7.15,23.95Z"/>
        <path class="cls-1" d="M726.11,398.66c.42.42.13,1.71.05,2.1-.81,3.79,4.22,11.31,11.29,16.56,4.8,3.56,8.79,4.77,8.55,5.41-.21.57-3.49.06-6.2-1-3.95-1.53-6.41-4.12-7.9-5.7-1.65-1.77-2.62-3.27-3.63-4.87-2.13-3.35-4.14-8.63-4.05-11.62.03-1.05,1.67-1.1,1.88-.89Z"/>
        <path class="cls-1" d="M550.01,451.87c-.25.71-2.33.44-2.93.38-9.51-.9-10.6-7.18-9.98-15.44.06-.76.42-3.94.98-4.11,2.3-.68.99,3.58.96,4.48-.32,9.67,1.44,12.26,10.97,14.69Z"/>
        <path class="cls-1" d="M775.02,307.9c.59.56.33,4.41.5,5.57,1.18,7.92,2.97,14.26,8.42,20.13,1.32,1.42.29,1.56-1.14.76-5.96-3.29-10.02-19.75-8.54-25.88.11-.46.09-1.23.77-.58Z"/>
        <path class="cls-1" d="M392.3,345.85c-2.59,1.4-15.85-.22-14.82-4.41.67-2.69,3.94.21,5.04.7,2.8,1.23,5.86,1.73,8.52,2.83.48.2,1.15.24,1.26.89Z"/>
        <path class="cls-1" d="M918.4,144.24c2.38,2.68,6.17,3.65,9.08,5.2.42.22,1.11.34.96.99-.36.41-.93.83-1.46.92-2.6.45-9.14-4.27-10.6-6.46-.56-.84-3.02-6.56-.66-6,.33.08,1.78,4.32,2.68,5.34Z"/>
        <path class="cls-1" d="M805.55,333.34c-.21,2.52-2.69.71-4.04-.07-2.25-1.3-7.48-4.72-8-7.26-.19-.9-.44-4.84,1.1-3.84.27.17,1.7,3.67,2.4,4.64,2.02,2.79,5.39,5.19,8.54,6.53Z"/>
        <path class="cls-1" d="M504.23,226.14c2.3.57,3.01,3.61,4.3,4.89.96.95-.07-2.57-.2-2.93-1.05-2.83-3.05-5.38-4.1-8.22,2.41,2.63,4.86,6.31,6.17,9.67.81,2.08,2.37,5.67.28,7.14-.89-1.07-6.87-10.09-6.45-10.56Z"/>
        <path class="cls-1" d="M888.52,397.1c-.14.75-.82.64-1.35.8-3.41.98-14.77,3.01-18.03,2.72-1.03-.09-2.43-.31-1.53-1.57,7.07-.12,13.68-2.79,20.9-1.95Z"/>
        <path class="cls-1" d="M949.56,250.39l-9.23-13.66c-3.59-4.31-7.19-8.55-11.12-12.55l5.05,3.75c4.47,5.17,8.81,9.96,12.24,15.93,1.11,1.94,2.46,4.43,3.06,6.52Z"/>
        <path class="cls-1" d="M1033.04,422.02c-.24-.41-.92-2.79-.71-3.41.61.55.6,1.33,1.16,1.97,1.88,2.18,4.42,4.08,7.17,4.96,1.53.49,5.52.29,4.75,2.61-.53,1.6-5.47-.12-6.64-.72-1.59-.81-4.88-4-5.73-5.42Z"/>
        <path class="cls-1" d="M868.95,446.4c.81.88-2.51,1.51-2.93,1.56-3.5.4-8.25.58-11.76.41-1.64-.08-3.2-.63-4.87-.41.16-.78.8-.66,1.37-.77,3.72-.72,12.35-1.46,16.06-1.19.42.03,1.97.24,2.13.41Z"/>
        <path class="cls-1" d="M874.74,163.63c-.14-.26-2.96-1.52-3.43-2.63-.2-.46.12-.78.58-.58.73.32,2.7,2.17,3.85,2.8,2.89,1.58,6.64,2.35,9.15,3.76,1.64.92.81,1.78-.82,1.63-1.13-.1-8.63-2.38-9.05-3.11-.34-.6-.02-1.42-.27-1.88Z"/>
        <path class="cls-1" d="M757.42,220.27l-2.97-5.05c-2.48-3.52-5.4-6.27-9.03-8.58-2.68-1.7-5.95-2.76-8.35-4.76,8.6,2.63,18.42,9.06,20.35,18.38Z"/>
        <path class="cls-1" d="M622.01,152.98c1.56,1.52-7.95,11.99-10.96,11.34,2.13-2.54,5.41-4.62,7.44-7.23.5-.64,2.47-5.13,3.52-4.11Z"/>
        <path class="cls-1" d="M546.09,447.17c-4.67.75-7.04-6.41-4.49-9.38,1.43-.3.88,3.22,1.01,4.07.35,2.43,1.7,3.84,3.49,5.31Z"/>
        <path class="cls-1" d="M615.75,199.93c.13,4.18-6.84,3.04-9,.97l9-.97Z"/>
        <path class="cls-1" d="M448.65,306.34c.04.82-1.1.23-1.45.08-5.91-2.39-11.87-8.11-13.8-14.17,1.4,1.72,2.4,3.66,3.75,5.44,3,3.92,6.8,6.99,11.5,8.65Z"/>
        <path class="cls-1" d="M939,240.22c-.74.17-.93-.41-1.37-.78-1.56-1.29-2.92-2.83-4.53-4.08-1.5-1.16-3.68-2.1-5.03-3.19-.46-.37-.95-.64-.81-1.34,1.38-1.27,10.75,7.8,11.74,9.38Z"/>
        <path class="cls-1" d="M392.69,341.55c-1.3,2.43-10.03-.87-8.22-2.74.7-.73,2.3,1.01,2.85,1.25,1.77.79,3.42,1.3,5.37,1.49Z"/>
        <path class="cls-1" d="M557.44,374.4l2.29-2.99,2.01-4.83c1.67,3.14-.98,7.17-4.3,7.82Z"/>
        <path class="cls-1" d="M633.75,377.54c.17.14,1.19,3.27,1.64,4.04.85,1.45,2.04,2.49,3.06,3.78-.79.65-6.23-4.5-5.89-6.83.09-.6.74-1.35,1.19-.99Z"/>
        <path class="cls-1" d="M609.49,195.23c-.68-.64.11-.66.59-.77,1.32-.3,4.41-1.33,5.26-1.4,1.6-.13,1.47,2.01-.64,2.49-.81.18-4.78.09-5.2-.31Z"/>
        <path class="cls-1" d="M922.17,142.03c2.36.76,4.57,1.8,6.91,2.68,2.05.77,1.59,1.73-.27,1.46-2.28-.33-5.32-2.23-6.64-4.14Z"/>
        <path class="cls-1" d="M778.55,427.22c-2.56-.38-5.97-3.23-6.26-5.86l6.26,5.86Z"/>
        <path class="cls-1" d="M964.82,46.57c.5.48.47,4.34.39,5.28-.07.83-.39,2.89-1.17,3.33-.35-1.91.35-3.87.4-5.65,0-.19-1-4.27.37-2.95Z"/>
        <path class="cls-1" d="M549.62,379.88c.81-1.01,2.19-1.15,3.27-2.01.72-.57.96-1.54,1.82-1.9.24,3.89-2.02,3.81-5.08,3.91Z"/>
        <path class="cls-1" d="M724.94,434.65c-1.68.07-3.31-1.74-4.3-2.93-.37-.44-.95-.63-.78-1.37.28-.28,2.54,1.65,2.92,1.97.73.62,2.09,1.34,2.17,2.33Z"/>
        <path class="cls-1" d="M1042.71,420.18c-1.59.11-3.74.15-4.3-1.75.31-1.47,3.95.99,4.3,1.75Z"/>
        <path class="cls-1" d="M631.8,252.74c.1.1.15.94-.26,1.18-.79.46-3.72.76-4.43-.2.79-.14,4.28-1.4,4.69-.97Z"/>
        <path class="cls-1" d="M627.1,257.82c-.95-1.03,3.27-1.78,3.52-.58.12,1.52-3.18.94-3.52.58Z"/>
        <polygon class="cls-1" points="942.13 130.68 938.42 128.33 936.26 125.99 941.14 129.52 942.13 130.68"/>
        <path class="cls-1" d="M1096.6,392.92c.36.26.68,1.35,1.29,1.64l-.59.2-4.89-2.74c1.01-.04,3.43.36,4.19.9Z"/>
        <path class="cls-1" d="M1039.58,422.52c-1.76.13-4.05-1.6-3.91-3.52l3.91,3.52Z"/>
        <path class="cls-1" d="M966,57.13l-.29-1.27,1.46-5.77c.37,2.55-.58,4.66-1.17,7.04Z"/>
        <path class="cls-1" d="M1112.18,388.49c1.5-.26,1.79,3.16.78,3.12-.23-.01-1.85-2.94-.78-3.12Z"/>
        <path class="cls-1" d="M915.13,103.69c.86.96-6.2,10.11-7.23,11.35-2.99,3.56-6.92,7.29-10.58,10.16-.71.56-1.64,1.45-2.53,1.57,5.47-5.17,10.9-10.42,15.42-16.46,1.35-1.8,2.38-3.89,3.68-5.71.2-.27.78-1.42,1.24-.91Z"/>
        <path class="cls-1" d="M901.43,115.81c-.23-.21,3.47-4.43,3.85-4.95.8-1.12,4.44-7.36,5.34-7.17.6.47.6.49.42,1.19-.58,2.36-6.23,8.46-8.24,10.16-.44.37-.64.95-1.37.78Z"/>
        <path class="cls-1" d="M609.27,5.11c-2.22.2-3.55.34-4.97,1.19-2.83,1.7-3.85,4.86-4.24,6.48.85-1.43,2.35-3.41,4.82-4.44,1.45-.6,2.63-.62,4.31-.71,2.15-.12,5.27-.37,9.19-.97-.85,2.22-2.27,5.43-4.62,8.95-2.45,3.68-3.98,5.98-6.62,7.33-5.64,2.88-12.44-.55-14.06-1.42,1.8-1.39,4.25-3.02,7.38-4.42,2.82-1.25,5.4-1.97,7.47-2.39-1.03-.28-5.78-1.46-10.04,1.27-1.48.96-2.49,2.11-3.13,3.03,1.64-2.46,2.24-4.58,2.49-6.01.46-2.6-.01-4.14.16-8.59.07-1.91.23-3.46.34-4.4-1.25.34-2.92.89-4.8,1.77-4.05,1.9-6.69,4.23-7.76,5.25-1.32,1.24-2.11,2.23-3.48,3.95-2.88,3.62-5.27,6.63-6.59,9.16-.49-1.16-.97-1.97-1.12-2.23-1.29-2.2-2.86-3.64-3.91-4.46-1.48,4.31-3.38,7.35-4.9,9.37-2.01,2.66-3.34,3.44-4.87,5.9-1.28,2.08-2.73,5.2-3.28,9.64-.28-.6-.56-1.21-.85-1.82-.36-.76-.73-1.51-1.1-2.25-4.83,4.66-7.47,9.31-8.9,12.39-2.21,4.76-5.31,11.4-2.37,16.77.84,1.53,1.97,2.61,2.94,3.33-1.22,2.69-1.68,4.86-1.36,5.02.52.25,2.79-4.78,5.12-4.42.56.09.62.4,1.44.77,1.67.74,3.39.32,4.49.04,5.88-1.52,9.77-5.86,9.77-5.86,2.26-2.51,2.96-4.58,6.44-7.24.6-.46,1.12-.81,1.47-1.04-1.72-.39-3.89-.73-6.42-.75.36-.02.72-.04,1.08-.07,4.86-.35,8.35-.56,11.64-2.69,3.01-1.95,2.67-3.43,6.51-6.3,2.37-1.77,4.64-2.8,6.2-3.4-4.57-2.48-8.59-3.72-11.42-4.39-4.53-1.06-6.35-.73-6.94-.61-4.57.87-7.33,4.79-8.34,6.43.05-.3.16-.75.37-1.26.5-1.19,1.26-1.91,1.56-2.2,1.15-1.12,1.93-2.56,2.92-3.82,1.27-1.6,2.25-2.83,2.96-3.75-.01.05-.02.11-.04.16-.04.2-.02.43.06.69.94-.87,2.54-2.09,4.8-2.71.55-.15,1.89-.47,5.12-.24,4.87.35,7.76,1.5,7.89,1.16.11-.3-1.97-1.51-4.34-2.28-2.58-.83-4.5-.81-4.5-.99,0-.22,3.04-.46,7.06-.4,3.81.05,9.15.4,15.68,1.67-4.65,1.71-7.51,3.49-9.28,4.82-.53.4-1.48,1.15-2.97,1.72-1.15.43-2.88.86-5.9.56-4.39-.43-8.09-2.06-10.43-3.3.65.7,1.64,1.64,3,2.53,3.36,2.19,6.72,2.53,8.65,2.71,1.88.17,3.19.29,4.89-.09,3.35-.76,4.89-2.77,7.16-4.39,2.13-1.52,5.48-3.12,10.82-3.34-.86-.7-2.13-1.62-3.8-2.47-.75-.38-1.59-.76-2.63-1.1,2.77-.61,5.57-1.88,7.64-4,1.49-1.52,2.65-4.58,4.99-10.7,1.03-2.7,1.81-4.96,2.33-6.53-2.96.47-7.31.05-11.19.41ZM548.28,63.91c-.63-.34-1.46-.92-2.12-1.86-.78-1.12-1.34-2.79-.74-6.58.3-1.92,1.14-5.92,4.28-11.3.94-1.61,2.39-3.87,4.5-6.37.2.93.38,1.91.51,2.92.87,6.34.05,11.98-1.17,16.43.05-1.01.03-2.29-.23-3.74-.37-2.07-1.09-3.69-1.69-4.8.23,1.1.45,2.63.45,4.46,0,1.34-.04,3.8-1.05,6.46-.81,2.13-1.45,2.3-2.73,4.39ZM569.93,55.41c-1.44,1.87-3.77,4.4-7.19,6.63-4.73,3.08-9.28,4.1-11.94,4.48.07-.4.42-2.15,2.02-3.33,1.07-.79,2.17-.94,2.67-.97-.33-.23-1-.63-1.95-.72-1.41-.13-2.44.52-2.74.72,1.33-1.44,4.28-4.26,9-5.87,4.4-1.5,8.2-1.22,10.13-.95ZM569.32,41.31c3.03-1.99,4.58-2.98,6.63-3.48,5.11-1.27,9.98,1.41,12.36,3.01-.81.29-2.03.78-3.34,1.65-3.24,2.14-3.39,4.07-5.88,6.11-1.85,1.52-4.03,2.03-8.37,3.06-4.72,1.12-8.05,1.17-8.05,1.4.01.16,1.36.28,3.17.27-1.83.1-3.46.36-4.86.67.47-1.14,1.35-2.8,2.98-4.3,3.61-3.34,8.12-3.34,9.27-3.3-1.39-.22-3.13-.33-5.08,0-6.32,1.05-10.03,5.76-11.09,7.21,1.34-2.11,3.09-4.42,5.34-6.7.6-.61,3.06-3.05,6.94-5.6ZM572.22,27.42c-1.09,5.33-6.83,7.83-6.71,12.59.02.62.25,2.29-.61,2.87-.45.31-1.14.27-1.59-.04-.85-.59-.69-2.1-.56-3.09.17-1.44.82-4.31,3.79-8-1.14.91-2.6,2.28-3.86,4.24-2.11,3.29-2.64,6.61-3.3,6.52-.2-.03-.44-.38-.58-1.8.32-5.1,1.9-8.24,3.34-10.19,1.09-1.48,2.04-2.2,4.3-4.91,1.97-2.36,3.42-4.41,4.35-5.78,1.79,3.45,1.77,5.96,1.43,7.59ZM586.61,24.76c-.7.08-1.42.18-2.15.29,1.04-2.61,2.08-5.22,3.12-7.82-3.31,3.59-4.82,8.71-10.16,10.17.04-1.73.29-4.29,1.29-7.2,2.33-6.73,7.06-10.49,8.83-11.86,1.57-1.21,4.04-2.84,7.43-4.1-.11,1.71-.23,3.43-.34,5.14.04,1.6-.1,3.87-.99,6.39-1.74,4.92-5.25,7.76-7.03,8.98Z"/>
      </g>
      <g>
        <path class="cls-1" d="M97.45,698.02c0-9.93-2.29-18.28-6.85-25.03-4.57-6.75-10.28-12.67-17.14-17.73s-14.3-9.73-22.35-14.01c-8.05-4.27-15.5-8.89-22.35-13.86-6.85-4.96-12.57-10.73-17.13-17.28-4.57-6.56-6.85-14.7-6.85-24.44,0-5.36.75-10.68,2.23-15.94,1.49-5.26,4.17-10.08,8.05-14.45,3.87-4.37,9.19-7.9,15.94-10.58,6.75-2.68,15.39-4.02,25.93-4.02,5.16,0,10.33.65,15.5,1.94,5.16,1.29,9.43,1.94,12.81,1.94s5.56-.89,6.56-2.68h3.28v47.38h-3.28c0-15.89-3.33-27.31-9.98-34.27-6.66-6.95-15.94-10.43-27.86-10.43s-20.76,3.23-27.12,9.69c-6.36,6.46-9.54,15.35-9.54,26.67,0,8.54,2.33,15.7,7,21.46,4.67,5.76,10.48,10.93,17.43,15.5,6.95,4.57,14.5,8.94,22.65,13.11,8.14,4.17,15.69,8.99,22.65,14.45,6.95,5.47,12.76,11.87,17.43,19.22,4.67,7.35,7,16.59,7,27.71,0,7.35-1.09,14.6-3.28,21.75-2.19,7.15-5.71,13.56-10.58,19.22-4.87,5.66-11.13,10.23-18.77,13.71-7.65,3.47-16.94,5.21-27.86,5.21-4.17,0-8.34-.4-12.52-1.19-4.17-.79-8.1-1.74-11.77-2.83-3.68-1.09-7-2.04-9.98-2.83-2.98-.79-5.56-1.19-7.75-1.19-2.98,0-4.77,1.29-5.36,3.87H0v-50.06h3.58c0,6.76,1.04,13.11,3.13,19.07s5.26,11.23,9.54,15.79c4.27,4.57,9.58,8.19,15.94,10.88,6.36,2.68,13.71,4.02,22.05,4.02s15.24-1.34,20.71-4.02c5.46-2.68,9.88-6.3,13.26-10.88,3.38-4.57,5.76-9.83,7.15-15.79,1.39-5.96,2.09-12.32,2.09-19.07Z"/>
        <path class="cls-1" d="M322.14,746.59v3.87h-69.43v-3.87h2.38c5.16,0,9.19-2.09,12.07-6.26,2.88-4.17,3.52-8.64,1.94-13.41l-16.39-49.17h-73.31l-17.28,49.17c-1.59,4.77-.95,9.24,1.94,13.41,2.88,4.17,6.9,6.26,12.07,6.26h11.62v3.87h-69.43v-3.87h7.15c6.75,0,12.81-1.94,18.18-5.81,5.36-3.87,9.14-8.99,11.32-15.35l65.26-191.02,65.86,191.02c2.18,6.36,5.96,11.47,11.32,15.35,5.36,3.87,11.42,5.81,18.18,5.81h6.56ZM250.62,671.49l-33.97-101.62-35.46,101.62h69.43Z"/>
        <path class="cls-1" d="M489.01,541.27h63.77v3.87h-11.03c-4.57,0-8.45,1.59-11.62,4.77s-4.77,7.05-4.77,11.62v197.57l-158.83-191.02v161.81c0,4.57,1.59,8.45,4.77,11.62,3.18,3.18,7.05,4.77,11.62,4.77h11.92v4.17h-63.77v-4.17h10.13c4.57,0,8.44-1.59,11.62-4.77,3.18-3.18,4.77-7.05,4.77-11.62v-200.55l158.83,191.32v-159.13c0-4.57-1.59-8.44-4.77-11.62-3.18-3.18-7.05-4.77-11.62-4.77h-11.03v-3.87Z"/>
        <path class="cls-1" d="M732.78,731.69c-4.77,3.78-10.43,7.15-16.99,10.13-5.56,2.58-12.47,4.92-20.71,7-8.25,2.09-17.73,3.13-28.46,3.13-14.5,0-28.21-2.78-41.12-8.34-12.92-5.56-24.14-13.11-33.67-22.65-9.54-9.54-17.09-20.76-22.65-33.67-5.56-12.91-8.34-26.62-8.34-41.12s2.78-28.46,8.34-41.27c5.56-12.81,13.11-23.99,22.65-33.52,9.54-9.54,20.76-17.08,33.67-22.65,12.91-5.56,26.62-8.34,41.12-8.34,8.54,0,15.99.3,22.35.89,6.36.6,11.82,1.24,16.39,1.94,4.57.7,8.29,1.34,11.17,1.94,2.88.6,5.22.89,7,.89,2.78,0,4.47-1.49,5.07-4.47h3.28v47.38h-3.28c.4-8.94-.95-16.29-4.02-22.05-3.08-5.76-7.15-10.33-12.22-13.71-5.07-3.38-10.83-5.71-17.28-7-6.46-1.29-12.96-1.94-19.52-1.94-3.38,0-6.66.15-9.83.45-3.18.3-6.16.65-8.94,1.04-12.72,1.79-24.19,5.91-34.42,12.37-10.23,6.46-18.83,14.6-25.78,24.44-6.96,9.83-12.07,20.96-15.35,33.38-3.28,12.42-4.22,25.68-2.83,39.78,1.39,13.91,4.87,26.67,10.43,38.29,5.56,11.62,12.71,21.46,21.46,29.5,8.74,8.05,18.77,14.11,30.1,18.18,11.32,4.07,23.34,5.51,36.06,4.32,10.13-.99,18.77-2.68,25.93-5.07,7.15-2.38,13.01-4.96,17.58-7.75,5.16-3.18,9.43-6.56,12.81-10.13v8.64Z"/>
        <path class="cls-1" d="M787.01,746.59h10.43c4.57,0,8.44-1.59,11.62-4.77s4.77-7.05,4.77-11.62v-185.06c-9.34,0-17.78.25-25.33.74-7.55.5-13.96,2.09-19.22,4.77-5.27,2.68-9.34,6.96-12.22,12.81-2.88,5.86-4.32,14.16-4.32,24.88h-3.58v-47.08h146.02v47.08h-3.28c0-10.73-1.44-19.02-4.32-24.88-2.88-5.86-7-10.13-12.37-12.81-5.36-2.68-11.87-4.27-19.52-4.77-7.65-.49-16.14-.74-25.48-.74v185.06c0,4.57,1.59,8.45,4.77,11.62,3.18,3.18,7.05,4.77,11.62,4.77h10.73v3.87h-70.33v-3.87Z"/>
        <path class="cls-1" d="M1016.17,751.95c-14.5,0-28.21-2.78-41.12-8.34-12.92-5.56-24.14-13.11-33.67-22.65-9.54-9.54-17.09-20.76-22.65-33.67-5.56-12.91-8.34-26.62-8.34-41.12s2.78-28.46,8.34-41.27c5.56-12.81,13.11-23.99,22.65-33.52,9.54-9.54,20.76-17.08,33.67-22.65,12.91-5.56,26.62-8.34,41.12-8.34s28.46,2.78,41.27,8.34c12.81,5.56,23.99,13.11,33.52,22.65,9.54,9.54,17.08,20.71,22.65,33.52,5.56,12.81,8.34,26.57,8.34,41.27s-2.78,28.21-8.34,41.12c-5.56,12.92-13.11,24.14-22.65,33.67s-20.71,17.09-33.52,22.65c-12.81,5.56-26.57,8.34-41.27,8.34ZM1025.41,547.82c-12.12-1.19-23.74.2-34.87,4.17-11.13,3.98-21.06,9.98-29.8,18.03-8.74,8.05-15.99,17.83-21.75,29.35-5.76,11.52-9.24,24.04-10.43,37.55-1.39,13.71-.35,26.77,3.13,39.19,3.47,12.42,8.74,23.5,15.79,33.23,7.05,9.74,15.69,17.73,25.93,23.99,10.23,6.26,21.4,9.98,33.52,11.17,12.12,1.19,23.74-.2,34.87-4.17,11.12-3.97,21.06-9.98,29.8-18.03,8.74-8.05,15.99-17.83,21.75-29.35,5.76-11.52,9.24-24.04,10.43-37.55,1.19-13.71.1-26.77-3.28-39.19-3.38-12.41-8.64-23.49-15.79-33.23-7.15-9.73-15.79-17.73-25.93-23.99-10.13-6.26-21.26-9.98-33.38-11.18Z"/>
        <path class="cls-1" d="M1350.53,750.17c-4.17.4-8.1.84-11.77,1.34-3.68.49-7.3.75-10.88.75-4.77,0-9.64-.6-14.6-1.79-4.97-1.19-10.33-3.43-16.09-6.71-5.76-3.28-12.27-7.9-19.52-13.86-7.25-5.96-15.65-13.61-25.18-22.95-3.58-3.38-7.6-7.35-12.07-11.92-4.47-4.57-8.94-9.09-13.41-13.56s-8.6-8.69-12.37-12.67c-3.78-3.97-6.66-6.95-8.64-8.94h-27.71v70.03c0,4.57,1.59,8.45,4.77,11.62,3.18,3.18,7.05,4.77,11.62,4.77h10.43v4.17h-69.43v-4.17h9.83c4.57,0,8.44-1.59,11.62-4.77s4.77-7.05,4.77-11.62v-168.37c0-4.57-1.59-8.44-4.77-11.62-3.18-3.18-7.05-4.77-11.62-4.77h-10.13v-3.87h75.99c13.11,0,24.14,2.64,33.08,7.9,8.94,5.27,15.84,11.87,20.71,19.82,4.87,7.95,7.65,16.74,8.34,26.37.69,9.64-.6,18.77-3.87,27.42s-8.64,16.29-16.09,22.95c-7.45,6.66-16.94,10.98-28.46,12.96,4.77,5.36,10.18,11.23,16.24,17.58,6.06,6.36,12.56,12.77,19.52,19.22,6.95,6.46,14.2,12.77,21.75,18.92,7.55,6.16,15.15,11.58,22.8,16.24,7.65,4.67,15.3,8.45,22.95,11.32,7.65,2.88,15.05,4.32,22.2,4.32v3.87ZM1178.28,655.1h26.52c11.32,0,20.76-2.73,28.31-8.2,7.55-5.46,13.21-12.26,16.99-20.41,3.77-8.14,5.66-16.94,5.66-26.37s-1.89-18.22-5.66-26.37c-3.78-8.14-9.44-14.95-16.99-20.41-7.55-5.46-16.99-8.19-28.31-8.19h-10.13c-4.57,0-8.45,1.59-11.62,4.77s-4.77,7.05-4.77,11.62v93.57Z"/>
        <path class="cls-1" d="M1477.48,545.44c-5.76,0-11.08,1.39-15.94,4.17-4.87,2.78-8.69,6.66-11.47,11.62l-50.36,90v78.97c0,4.57,1.59,8.45,4.77,11.62,3.18,3.18,7.05,4.77,11.62,4.77h8.05v3.87h-63.77v-3.87h6.56c4.57,0,8.44-1.59,11.62-4.77,3.18-3.18,4.77-7.05,4.77-11.62v-78.97l-53.34-90.59c-2.78-4.77-6.56-8.49-11.32-11.17s-10.03-4.02-15.79-4.02h-6.26v-4.17h72.71v4.17h-6.56c-2.78,0-5.27.7-7.45,2.09-2.19,1.39-3.87,3.13-5.07,5.21-1.19,2.09-1.84,4.47-1.94,7.15-.1,2.68.54,5.21,1.94,7.6l44.4,74.8,42.02-75.1c1.39-2.38,1.98-4.87,1.79-7.45-.2-2.58-.89-4.92-2.09-7-1.19-2.09-2.88-3.82-5.07-5.21-2.19-1.39-4.67-2.09-7.45-2.09h-4.17v-4.17h63.47v4.17h-5.66Z"/>
      </g>
    </g>
  </g>
</svg>