<svg width="24" height="24" viewBox="0 0 24 24" fill="none" xmlns="http://www.w3.org/2000/svg">
<mask id="mask0_393_8877" style="mask-type:alpha" maskUnits="userSpaceOnUse" x="0" y="0" width="24" height="24">
<rect width="24" height="24" fill="#D9D9D9"/>
</mask>
<g mask="url(#mask0_393_8877)">
<path d="M4.7998 18.7C4.36647 18.7 4.00814 18.5584 3.7248 18.275C3.44147 17.9917 3.2998 17.6334 3.2998 17.2V6.80005C3.2998 6.36672 3.44147 6.00838 3.7248 5.72505C4.00814 5.44172 4.36647 5.30005 4.7998 5.30005H19.1998C19.6331 5.30005 19.9915 5.44172 20.2748 5.72505C20.5581 6.00838 20.6998 6.36672 20.6998 6.80005V17.2C20.6998 17.6334 20.5581 17.9917 20.2748 18.275C19.9915 18.5584 19.6331 18.7 19.1998 18.7H4.7998ZM11.9998 11.85L3.9998 6.55005V17.2C3.9998 17.4334 4.0748 17.625 4.2248 17.775C4.3748 17.925 4.56647 18 4.7998 18H19.1998C19.4331 18 19.6248 17.925 19.7748 17.775C19.9248 17.625 19.9998 17.4334 19.9998 17.2V6.55005L11.9998 11.85ZM11.9998 11L19.5998 6.00005H4.3998L11.9998 11ZM3.9998 6.55005V6.00005V17.2C3.9998 17.4334 4.0748 17.625 4.2248 17.775C4.3748 17.925 4.56647 18 4.7998 18H3.9998V6.55005Z" fill="#242424"/>
</g>
</svg>
